<svg xmlns="http://www.w3.org/2000/svg" viewBox="-2 -6 224 54" width="224" height="54" role="img" aria-label="Lanyard">
  <!-- Lanyard wordmark — print master, colorway: full-colour (light garments). FONT-FREE (outlined paths,
       no Montserrat needed). Built by tools/build-wordmark-svg.py from measured geometry.
       Locked spec (bare eyelet, no housing ring, badge x1.1 overlap): brand/wordmark_canonical.md -->
  <path d="M2.394 36.0V6.599999999999998H12.306000000000001V28.314H25.578000000000003V36.0ZM24.276000000000003 36.0 37.128 6.599999999999998H46.872L59.724000000000004 36.0H49.476L47.502 30.875999999999998H36.33L34.356 36.0ZM39.06 23.735999999999997H44.772000000000006L41.916000000000004 16.343999999999998ZM60.48 36.0V6.599999999999998H68.628L79.8 19.956V6.599999999999998H89.46000000000001V36.0H81.312L70.14 22.644V36.0Z" fill="#2D6A4F"/>
  <path d="M119.642 36.0 132.494 6.599999999999998H142.238L155.09 36.0H144.84199999999998L142.868 30.875999999999998H131.696L129.722 36.0ZM134.426 23.735999999999997H140.138L137.282 16.343999999999998ZM155.846 36.0V6.599999999999998H169.57999999999998Q176.34199999999998 6.599999999999998 179.87 9.581999999999999Q183.398 12.564 183.398 17.688Q183.398 20.88 181.949 23.232Q180.5 25.584 177.85399999999998 26.927999999999997L184.028 36.0H173.444L168.446 28.608H165.758V36.0ZM165.758 21.131999999999998H169.37Q171.428 21.131999999999998 172.415 20.208Q173.402 19.284 173.402 17.688Q173.402 16.092 172.415 15.168Q171.428 14.244 169.37 14.244H165.758ZM186.296 36.0V6.599999999999998H200.786Q205.7 6.599999999999998 209.438 8.384999999999998Q213.176 10.169999999999998 215.27599999999998 13.445999999999998Q217.37599999999998 16.721999999999998 217.37599999999998 21.299999999999997Q217.37599999999998 25.836 215.27599999999998 29.133Q213.176 32.43 209.438 34.215Q205.7 36.0 200.786 36.0ZM196.208 28.272H200.36599999999999Q203.474 28.272 205.427 26.466Q207.38 24.66 207.38 21.299999999999997Q207.38 17.939999999999998 205.427 16.134Q203.474 14.328 200.36599999999999 14.328H196.208Z" fill="#2D6A4F"/>
  <!-- Badge drawn LAST: SVG paints in document order, and the x1.1 overlap
       means the badge must sit ON TOP of the letters (matches the web/app
       stacking, where the transformed badge paints above the text). -->
  <g transform="rotate(12 107.94 21) translate(107.94 21) scale(1.1) translate(-107.94 -21)">
    <rect x="94.19" y="1.25" width="27.5" height="39.5" rx="3.25" fill="#1B4332" stroke="#52B788" stroke-width="1.5"/>
    <rect x="103.91" y="4.0" width="8.06" height="2.02" rx="1.01" fill="#52B788"/>
    <path d="M104.04599999999999 34.79V26.308999999999997L95.33399999999999 11.689999999999998H103.55099999999999L108.27 19.676L113.02199999999999 11.689999999999998H120.54599999999999L111.83399999999999 26.408V34.79Z" fill="#FFFFFF"/>
  </g>
</svg>
