<svg xmlns="http://www.w3.org/2000/svg" viewBox="0 0 1 1">
  <path fill="black" fill-rule="evenodd" d="M 0.344800 0.980600 C 0.322500 0.970000 0.301200 0.957800 0.297500 0.953500 C 0.288300 0.942800 0.288900 0.929000 0.299600 0.906200 C 0.304500 0.895900 0.319600 0.858300 0.333100 0.822800 C 0.346700 0.787300 0.359500 0.754700 0.361600 0.750500 C 0.369700 0.734300 0.382900 0.611500 0.379200 0.586600 C 0.377300 0.573800 0.376900 0.573400 0.366300 0.573400 C 0.351100 0.573400 0.335700 0.564800 0.328400 0.552400 C 0.322800 0.542700 0.322300 0.536800 0.322300 0.480300 C 0.322300 0.411500 0.324800 0.393600 0.341000 0.346600 C 0.363900 0.280200 0.396100 0.234300 0.432700 0.216000 C 0.442700 0.211000 0.452800 0.206900 0.455000 0.206900 C 0.462700 0.206900 0.459000 0.202000 0.447400 0.196900 C 0.427900 0.188300 0.409000 0.169300 0.398300 0.147400 C 0.389600 0.129700 0.388400 0.124500 0.388500 0.103300 C 0.388600 0.083800 0.390100 0.076000 0.396300 0.062600 C 0.410600 0.032000 0.432300 0.013000 0.463500 0.003900 C 0.513800 -0.010700 0.566000 0.016700 0.585300 0.067900 C 0.590600 0.081900 0.591600 0.089700 0.590500 0.109200 C 0.588500 0.147300 0.569900 0.177100 0.537400 0.194500 C 0.527300 0.199800 0.519100 0.205700 0.519100 0.207500 C 0.519100 0.209300 0.527300 0.218100 0.537200 0.227100 C 0.567900 0.254900 0.576400 0.274400 0.585600 0.337600 C 0.589100 0.362200 0.594200 0.385000 0.597800 0.392500 C 0.604800 0.407200 0.658100 0.464200 0.682500 0.483000 C 0.702400 0.498400 0.709700 0.512100 0.707600 0.530500 C 0.704900 0.554700 0.681000 0.570800 0.657400 0.564400 C 0.648800 0.562000 0.627000 0.546600 0.579800 0.509400 C 0.576600 0.506900 0.576000 0.513500 0.576800 0.545100 C 0.577700 0.581700 0.578900 0.588300 0.597700 0.660600 C 0.618700 0.741000 0.623600 0.763900 0.640700 0.858300 C 0.646500 0.890200 0.651900 0.917500 0.652800 0.918900 C 0.653700 0.920300 0.658400 0.922300 0.663400 0.923200 C 0.668300 0.924200 0.676400 0.925800 0.681400 0.926700 C 0.686400 0.927700 0.694600 0.931900 0.699500 0.936000 C 0.711300 0.946000 0.712200 0.965400 0.701300 0.975700 C 0.693700 0.982800 0.637900 0.995800 0.600200 0.999100 C 0.573900 1.001400 0.568600 0.997000 0.561400 0.967000 C 0.552500 0.929700 0.505400 0.777500 0.496800 0.758300 L 0.488900 0.740500 L 0.479000 0.768900 C 0.473200 0.785800 0.455000 0.823000 0.434000 0.861100 C 0.395300 0.931200 0.396100 0.927500 0.415200 0.945800 C 0.439200 0.968900 0.429900 1.000200 0.399100 1.000000 C 0.388600 0.999900 0.376000 0.995400 0.344800 0.980600 Z"/>
</svg>
