<svg xmlns="http://www.w3.org/2000/svg" viewBox="0 0 1 1">
  <path fill="black" fill-rule="evenodd" d="M 0.115100 0.997300 C 0.100600 0.990800 0.092100 0.977300 0.092200 0.960800 C 0.092300 0.951600 0.093300 0.948100 0.098000 0.941500 C 0.102900 0.934500 0.112400 0.926300 0.118000 0.924300 C 0.119400 0.923700 0.132200 0.781300 0.142200 0.654000 C 0.143800 0.633300 0.146000 0.607200 0.147000 0.596000 C 0.148100 0.584800 0.148900 0.543500 0.148900 0.504200 C 0.148800 0.423300 0.149700 0.426200 0.134400 0.457800 C 0.124700 0.477900 0.115900 0.500200 0.101900 0.540600 C 0.095000 0.560400 0.090000 0.571500 0.085700 0.576600 C 0.068100 0.597500 0.035300 0.598300 0.018400 0.578200 C 0.004600 0.561800 0.004800 0.550800 0.020000 0.505200 C 0.047100 0.423700 0.074100 0.369600 0.127400 0.289900 C 0.140100 0.270900 0.171800 0.248600 0.200100 0.238900 C 0.215400 0.233600 0.216200 0.233600 0.263900 0.233600 C 0.311700 0.233600 0.312400 0.233600 0.327900 0.239000 C 0.349600 0.246400 0.371900 0.260700 0.387200 0.276900 C 0.398900 0.289300 0.402600 0.295500 0.429900 0.350000 C 0.462100 0.414200 0.458200 0.408300 0.510000 0.470900 C 0.522100 0.485500 0.532700 0.497400 0.533500 0.497400 C 0.534400 0.497400 0.545500 0.484600 0.558200 0.468900 C 0.580400 0.441500 0.582500 0.438100 0.612700 0.380200 C 0.641500 0.325000 0.645100 0.319000 0.656500 0.307700 C 0.671000 0.293300 0.687400 0.282900 0.705300 0.276700 C 0.717200 0.272600 0.721400 0.272200 0.760700 0.272200 L 0.803200 0.272200 L 0.818700 0.278500 C 0.827200 0.282000 0.840000 0.289200 0.847100 0.294500 C 0.868500 0.310600 0.872000 0.315700 0.912700 0.387900 C 0.922200 0.404800 0.934700 0.427800 0.940300 0.439200 C 0.960100 0.478500 0.991700 0.555100 0.991700 0.563500 C 0.991600 0.583900 0.972700 0.603600 0.953000 0.603700 C 0.934600 0.603800 0.920700 0.594200 0.912400 0.575700 C 0.890000 0.526100 0.880500 0.505900 0.872900 0.491600 L 0.864100 0.475200 L 0.864800 0.542900 C 0.865300 0.594000 0.866500 0.620400 0.869700 0.651100 C 0.873900 0.692600 0.881700 0.779700 0.889500 0.874100 L 0.893900 0.926900 L 0.902000 0.932500 C 0.913500 0.940400 0.919000 0.952300 0.917900 0.967200 C 0.917200 0.976300 0.915900 0.980100 0.911300 0.985800 C 0.900400 0.999200 0.897100 1.000000 0.852700 1.000000 C 0.814000 1.000000 0.813100 0.999900 0.804900 0.995100 C 0.791500 0.987300 0.786800 0.977200 0.784600 0.951200 C 0.783600 0.939200 0.779700 0.895500 0.776000 0.854100 C 0.772300 0.812600 0.768000 0.764800 0.766500 0.747700 C 0.760300 0.677900 0.759200 0.668400 0.757700 0.666800 C 0.756900 0.665900 0.755700 0.668000 0.755200 0.671600 C 0.754000 0.679200 0.733300 0.919200 0.731000 0.950900 C 0.729300 0.975400 0.726000 0.983800 0.714500 0.993100 L 0.707200 0.999000 L 0.666000 0.999600 C 0.618700 1.000300 0.613500 0.999000 0.603800 0.984400 C 0.592700 0.967600 0.597200 0.945600 0.614100 0.933300 C 0.620700 0.928600 0.622400 0.926100 0.623300 0.919800 C 0.623800 0.915500 0.628300 0.862500 0.633200 0.801900 C 0.638100 0.741300 0.644200 0.667400 0.646800 0.637700 C 0.650300 0.597600 0.651500 0.570900 0.651400 0.534200 L 0.651400 0.484900 L 0.647100 0.490600 C 0.641000 0.498800 0.620500 0.522500 0.587900 0.559000 C 0.569900 0.579200 0.556900 0.592000 0.552000 0.594600 C 0.537800 0.601800 0.522000 0.599000 0.491500 0.584000 C 0.484600 0.580500 0.389200 0.467100 0.382200 0.453900 C 0.379300 0.448500 0.379100 0.452400 0.379000 0.512900 C 0.379000 0.568800 0.379800 0.587000 0.384800 0.646300 C 0.394400 0.759400 0.402000 0.848300 0.405000 0.882100 C 0.406600 0.899600 0.407900 0.916300 0.407900 0.919100 C 0.407900 0.922800 0.409400 0.924700 0.413500 0.926500 C 0.430600 0.933500 0.440100 0.959200 0.432300 0.977300 C 0.429100 0.984900 0.418600 0.995200 0.411200 0.997900 C 0.408000 0.999200 0.389000 1.000000 0.364900 1.000000 C 0.327700 1.000000 0.323400 0.999600 0.315900 0.996000 C 0.306800 0.991600 0.299500 0.983100 0.296100 0.972900 C 0.294900 0.969200 0.290900 0.932200 0.287100 0.890800 C 0.283400 0.849300 0.279100 0.801900 0.277500 0.785400 C 0.271100 0.719700 0.270200 0.710100 0.268100 0.685100 C 0.266600 0.667700 0.265100 0.658900 0.263500 0.658300 C 0.262100 0.657900 0.261000 0.659200 0.261000 0.661300 C 0.261000 0.663400 0.256300 0.716800 0.250500 0.779900 C 0.244700 0.843000 0.238300 0.912700 0.236300 0.934800 C 0.232900 0.973300 0.232500 0.975300 0.227100 0.983000 C 0.224000 0.987400 0.217600 0.993000 0.212900 0.995500 C 0.204700 0.999800 0.202700 1.000000 0.162600 0.999900 C 0.132300 0.999900 0.119300 0.999100 0.115100 0.997300 Z M 0.910900 0.295300 C 0.891400 0.285500 0.879600 0.265000 0.879600 0.240700 C 0.879600 0.224900 0.877400 0.216800 0.871200 0.209400 L 0.866500 0.203800 L 0.861700 0.211000 C 0.844700 0.236600 0.815800 0.253100 0.783900 0.255200 C 0.754500 0.257200 0.728500 0.247400 0.706800 0.226000 C 0.664100 0.183900 0.665600 0.118300 0.710100 0.076400 C 0.723000 0.064400 0.740100 0.055900 0.759900 0.051700 C 0.816900 0.039500 0.877700 0.088500 0.877700 0.146600 L 0.877700 0.158400 L 0.886800 0.158400 C 0.905100 0.158500 0.924400 0.171900 0.933900 0.191200 C 0.938200 0.200100 0.938500 0.202500 0.938000 0.227100 C 0.937600 0.249900 0.938000 0.254900 0.941500 0.264200 C 0.945500 0.274900 0.954400 0.284800 0.960000 0.284800 C 0.965300 0.284800 0.959400 0.291900 0.950500 0.296200 C 0.938600 0.302000 0.923700 0.301600 0.910900 0.295300 Z M 0.236100 0.206400 C 0.198600 0.196300 0.169700 0.164600 0.161300 0.124400 C 0.154500 0.091600 0.165700 0.055600 0.190600 0.030700 C 0.211300 0.010000 0.236200 -0.000100 0.265900 0.000000 C 0.312700 0.000200 0.354400 0.033100 0.366400 0.079300 C 0.370000 0.093000 0.370100 0.118300 0.366700 0.131100 C 0.357200 0.166600 0.328300 0.195700 0.292100 0.206300 C 0.279000 0.210200 0.250400 0.210200 0.236100 0.206400 Z"/>
</svg>
