<svg xmlns="http://www.w3.org/2000/svg" viewBox="0 0 1 1">
  <path fill="black" fill-rule="evenodd" d="M 0.341400 0.997800 C 0.318600 0.993700 0.306700 0.968400 0.316100 0.944300 C 0.319200 0.936100 0.331600 0.866200 0.343500 0.788900 C 0.355400 0.711600 0.369000 0.623600 0.373700 0.593200 L 0.382300 0.538000 L 0.374300 0.534800 C 0.364400 0.530900 0.339500 0.504900 0.301500 0.458800 C 0.247600 0.393200 0.246000 0.379500 0.286300 0.329600 C 0.327400 0.278500 0.371800 0.235400 0.394800 0.224000 C 0.416400 0.213400 0.416500 0.213400 0.501100 0.213400 C 0.580000 0.213400 0.587000 0.214000 0.604000 0.221800 C 0.625900 0.231900 0.650900 0.254800 0.693400 0.303700 C 0.734100 0.350500 0.741700 0.363100 0.741700 0.384000 C 0.741700 0.404900 0.739300 0.409400 0.703900 0.453400 C 0.663400 0.503900 0.637800 0.531200 0.627200 0.535200 C 0.619500 0.538100 0.618500 0.540500 0.620300 0.551200 C 0.627400 0.592000 0.676000 0.894400 0.678300 0.911500 C 0.679700 0.922800 0.683300 0.936600 0.686300 0.942300 C 0.694600 0.958100 0.692800 0.972300 0.681100 0.985000 C 0.671000 0.995800 0.668800 0.996500 0.637800 0.997000 C 0.587100 0.997900 0.584200 0.997400 0.574100 0.987300 C 0.566400 0.979700 0.564600 0.974000 0.564600 0.957600 C 0.564600 0.946500 0.552400 0.871500 0.537500 0.791000 C 0.502000 0.598800 0.502800 0.602800 0.499300 0.606600 C 0.497700 0.608400 0.490900 0.641100 0.484300 0.679200 C 0.477600 0.717300 0.465200 0.786600 0.456600 0.833200 C 0.448100 0.879800 0.439800 0.931900 0.438300 0.949100 C 0.435200 0.984200 0.431300 0.991100 0.411200 0.996700 C 0.397300 1.000600 0.359800 1.001200 0.341400 0.997800 Z M 0.387400 0.387600 L 0.387300 0.340500 L 0.368200 0.360900 C 0.357700 0.372200 0.349100 0.382700 0.349100 0.384200 C 0.349100 0.387700 0.383100 0.434800 0.385700 0.434800 C 0.386700 0.434800 0.387500 0.413500 0.387400 0.387600 Z M 0.653000 0.384700 C 0.653000 0.383700 0.644400 0.373300 0.633900 0.361600 L 0.614900 0.340500 L 0.614800 0.388300 L 0.614700 0.436200 L 0.633900 0.411400 C 0.644500 0.397800 0.653100 0.385800 0.653000 0.384700 Z M 0.457500 0.186100 C 0.424300 0.169500 0.405800 0.137900 0.406000 0.097900 C 0.406000 0.085200 0.408900 0.068400 0.412200 0.060600 C 0.434400 0.008700 0.495500 -0.014800 0.544600 0.009800 C 0.600300 0.037500 0.616700 0.108700 0.578800 0.158300 C 0.550900 0.194900 0.499000 0.206800 0.457500 0.186100 Z"/>
</svg>
