<svg xmlns="http://www.w3.org/2000/svg" viewBox="0 0 1 1">
  <path fill="black" fill-rule="evenodd" d="M 0.174700 0.992700 C 0.162600 0.982500 0.158800 0.967900 0.162800 0.947200 C 0.164600 0.938100 0.166900 0.916100 0.167800 0.898400 C 0.169000 0.876300 0.171200 0.862300 0.174800 0.853800 C 0.177700 0.847000 0.180100 0.839800 0.180100 0.837800 C 0.180100 0.835800 0.186100 0.832300 0.193500 0.829900 C 0.200900 0.827600 0.220800 0.821200 0.237900 0.815800 C 0.254900 0.810400 0.271200 0.805100 0.274000 0.804000 C 0.278900 0.802100 0.279000 0.804800 0.277200 0.860800 L 0.275300 0.919700 L 0.296800 0.930600 C 0.320300 0.942400 0.326700 0.950300 0.326700 0.967300 C 0.326700 0.972700 0.325100 0.980500 0.323300 0.984600 C 0.316900 0.998600 0.309700 1.000000 0.243900 1.000000 L 0.183400 1.000000 L 0.174700 0.992700 Z M 0.584500 0.996200 C 0.565300 0.989900 0.556100 0.983900 0.542600 0.968800 C 0.502000 0.923700 0.522800 0.849200 0.581000 0.831300 C 0.597200 0.826400 0.598300 0.825500 0.603400 0.812600 C 0.606300 0.805200 0.608300 0.799000 0.607800 0.798700 C 0.607400 0.798400 0.599900 0.796000 0.591100 0.793400 C 0.572200 0.787600 0.549300 0.768500 0.540200 0.750900 C 0.535100 0.741100 0.533900 0.732000 0.532000 0.690000 L 0.529700 0.640700 L 0.536800 0.634400 C 0.543000 0.628900 0.547100 0.628000 0.566600 0.628000 L 0.589200 0.628000 L 0.580300 0.616000 C 0.575500 0.609500 0.553000 0.577800 0.530300 0.545600 C 0.489400 0.487400 0.489200 0.487100 0.478700 0.487100 C 0.473000 0.487100 0.464000 0.485300 0.458700 0.483200 C 0.453500 0.481000 0.418300 0.471400 0.380500 0.462000 C 0.336900 0.451000 0.308600 0.442500 0.303000 0.438600 C 0.290300 0.429700 0.258800 0.405600 0.250700 0.398700 C 0.245200 0.393900 0.245600 0.394900 0.252700 0.404200 C 0.266800 0.422500 0.286500 0.439200 0.302100 0.446100 L 0.316500 0.452500 L 0.315700 0.466300 C 0.315200 0.473900 0.313300 0.500400 0.311500 0.525200 L 0.308100 0.570300 L 0.353800 0.616800 C 0.396500 0.660200 0.399700 0.664300 0.404200 0.679900 C 0.411300 0.704400 0.405400 0.731600 0.389000 0.750200 C 0.379700 0.760800 0.376200 0.762000 0.178400 0.823800 C 0.176700 0.824400 0.174500 0.828600 0.173600 0.833200 C 0.170700 0.847900 0.160400 0.856800 0.144700 0.858300 C 0.133900 0.859400 0.129300 0.858500 0.124400 0.854500 C 0.113900 0.845700 0.073000 0.776900 0.073000 0.767900 C 0.073000 0.745900 0.090400 0.730100 0.117400 0.727500 C 0.131700 0.726200 0.160500 0.718800 0.233300 0.697800 L 0.254000 0.691800 L 0.234700 0.682000 C 0.224000 0.676600 0.198900 0.664800 0.178700 0.655700 C 0.137500 0.637100 0.128800 0.629500 0.122100 0.606300 C 0.117200 0.589800 0.117400 0.582700 0.126700 0.447700 C 0.137300 0.291600 0.138000 0.288100 0.164800 0.259100 C 0.185800 0.236500 0.202200 0.229400 0.233700 0.229400 C 0.254200 0.229400 0.259700 0.230400 0.272100 0.236900 C 0.300200 0.251700 0.318400 0.280700 0.322600 0.317400 C 0.324400 0.333400 0.325500 0.335300 0.340600 0.350300 C 0.355600 0.365200 0.358600 0.366800 0.381900 0.372800 C 0.395700 0.376400 0.421900 0.383900 0.440200 0.389600 C 0.458500 0.395200 0.477300 0.399800 0.481900 0.399800 C 0.493800 0.399800 0.507100 0.406100 0.516900 0.416500 C 0.524700 0.424900 0.525300 0.427000 0.525600 0.448000 C 0.525800 0.473300 0.520400 0.463100 0.576100 0.542100 C 0.590300 0.562200 0.609500 0.589500 0.618700 0.602700 L 0.635600 0.626600 L 0.656800 0.627400 L 0.678100 0.628200 L 0.679500 0.529000 L 0.680800 0.429800 L 0.688500 0.423200 C 0.710800 0.404100 0.798400 0.427700 0.845800 0.465700 C 0.896000 0.505900 0.924600 0.566400 0.924600 0.632300 C 0.924600 0.701200 0.890400 0.773600 0.849200 0.791900 C 0.835500 0.797900 0.835500 0.798000 0.843900 0.818000 C 0.846900 0.825200 0.850400 0.827700 0.863600 0.831700 C 0.915800 0.847800 0.941100 0.900900 0.918900 0.947900 C 0.903500 0.980300 0.875300 0.998300 0.839500 0.998400 C 0.820800 0.998400 0.816300 0.997300 0.800700 0.988900 C 0.776800 0.976100 0.760800 0.955400 0.756300 0.931600 L 0.754400 0.921100 L 0.724000 0.921100 L 0.693600 0.921100 L 0.690200 0.935000 C 0.686600 0.950100 0.673500 0.970700 0.661400 0.980200 C 0.641200 0.996000 0.606100 1.003400 0.584500 0.996200 Z M 0.758400 0.888300 C 0.764100 0.868800 0.781300 0.847100 0.798400 0.837900 C 0.804000 0.834900 0.808500 0.831600 0.808500 0.830600 C 0.808500 0.829600 0.805900 0.823000 0.802800 0.815800 L 0.797000 0.802700 L 0.721400 0.802700 L 0.645900 0.802700 L 0.641200 0.814800 C 0.635000 0.831100 0.635100 0.831700 0.647000 0.838000 C 0.670000 0.850400 0.681400 0.866200 0.694400 0.903600 C 0.695400 0.906300 0.703000 0.907000 0.724500 0.906400 L 0.753300 0.905600 L 0.758400 0.888300 Z M 0.180100 0.683000 C 0.180100 0.671400 0.180900 0.661800 0.181900 0.661800 C 0.186400 0.661800 0.233300 0.688700 0.231500 0.690200 C 0.229100 0.692200 0.187700 0.704100 0.183200 0.704100 C 0.181200 0.704100 0.180100 0.696300 0.180100 0.683000 Z M 0.250600 0.206600 C 0.218700 0.197700 0.196100 0.178500 0.181200 0.147600 C 0.172700 0.130200 0.171700 0.125400 0.171700 0.104800 C 0.171700 0.073600 0.178600 0.055300 0.198900 0.033400 C 0.219200 0.011400 0.238900 0.001900 0.267700 0.000200 C 0.318100 -0.002800 0.360000 0.025500 0.374600 0.072500 C 0.384900 0.105300 0.380500 0.132400 0.360000 0.163100 C 0.335800 0.199400 0.290000 0.217600 0.250600 0.206600 Z"/>
</svg>
