<svg xmlns="http://www.w3.org/2000/svg" viewBox="0 0 1 1">
  <path fill="black" fill-rule="evenodd" d="M 0.290800 0.995800 C 0.286400 0.992700 0.284800 0.988800 0.284800 0.981300 C 0.284800 0.971100 0.286900 0.967500 0.307100 0.942300 L 0.314600 0.933100 L 0.307900 0.883200 C 0.304200 0.855800 0.299800 0.821100 0.298200 0.806200 C 0.295300 0.779400 0.283800 0.727000 0.268700 0.672100 C 0.264400 0.656400 0.260200 0.640500 0.259400 0.636700 C 0.258500 0.632600 0.252800 0.626200 0.245800 0.621100 C 0.230200 0.609900 0.223000 0.597900 0.219300 0.577400 C 0.213800 0.545900 0.225200 0.485200 0.246900 0.430500 C 0.270600 0.370600 0.299100 0.335600 0.332500 0.325300 C 0.342400 0.322300 0.352100 0.319800 0.354200 0.319800 C 0.359000 0.319800 0.359000 0.320300 0.351900 0.306100 C 0.346800 0.296100 0.345800 0.289600 0.345800 0.268300 C 0.345800 0.238100 0.350400 0.226500 0.371000 0.205300 C 0.386600 0.189300 0.405500 0.181600 0.429500 0.181600 C 0.460000 0.181600 0.488000 0.196000 0.488000 0.211700 C 0.488000 0.216700 0.489100 0.219200 0.490900 0.218100 C 0.492400 0.217100 0.495500 0.217800 0.497600 0.219600 C 0.501000 0.222400 0.501600 0.221200 0.501600 0.212100 C 0.501600 0.198000 0.515200 0.170900 0.528000 0.159700 C 0.564000 0.128000 0.616200 0.129200 0.650200 0.162400 C 0.668300 0.180100 0.676400 0.199800 0.676400 0.226300 C 0.676400 0.248800 0.673500 0.258900 0.662100 0.277400 C 0.658600 0.283100 0.656100 0.288000 0.656500 0.288300 C 0.657000 0.288500 0.665900 0.290900 0.676400 0.293500 C 0.699700 0.299400 0.720000 0.312400 0.734700 0.331100 C 0.748800 0.348800 0.767400 0.387400 0.777000 0.418800 C 0.783700 0.440500 0.784500 0.447200 0.784500 0.482400 C 0.784600 0.518200 0.783900 0.523700 0.777000 0.544700 C 0.772800 0.557400 0.763300 0.579900 0.755900 0.594800 L 0.742400 0.621800 L 0.745400 0.693700 C 0.747000 0.733200 0.750100 0.803300 0.752300 0.849300 C 0.756800 0.942500 0.754100 0.930500 0.776900 0.958500 C 0.780700 0.963300 0.784500 0.971800 0.785300 0.977500 C 0.786400 0.986000 0.785500 0.988900 0.779900 0.994100 C 0.773400 1.000200 0.772000 1.000400 0.730900 0.999500 C 0.678000 0.998400 0.677200 0.997900 0.674800 0.964000 C 0.673300 0.942300 0.659500 0.862300 0.641800 0.772400 C 0.630700 0.716000 0.630600 0.718000 0.634000 0.867800 C 0.636900 0.992700 0.637000 0.991600 0.621900 0.997400 C 0.618100 0.998800 0.595000 1.000000 0.570500 1.000000 C 0.529600 1.000000 0.525500 0.999600 0.520500 0.994600 C 0.517100 0.991200 0.515100 0.985500 0.515100 0.979400 C 0.515100 0.971100 0.517700 0.967000 0.533200 0.950900 L 0.551300 0.932200 L 0.541100 0.857000 C 0.528600 0.765200 0.501900 0.632000 0.493400 0.618400 C 0.491000 0.614800 0.490700 0.615800 0.491700 0.623300 C 0.493900 0.640500 0.488300 0.675400 0.474700 0.729200 C 0.467400 0.758400 0.459900 0.795000 0.458200 0.810500 C 0.456400 0.826000 0.452100 0.857300 0.448500 0.879900 C 0.444900 0.902600 0.442000 0.924300 0.442000 0.928200 C 0.442000 0.932900 0.447000 0.941300 0.456900 0.952900 C 0.474000 0.973100 0.476400 0.984600 0.465700 0.994700 C 0.460000 1.000100 0.457300 1.000400 0.429800 0.999400 C 0.399400 0.998300 0.389600 0.995400 0.382900 0.986000 C 0.379500 0.981300 0.379100 0.981400 0.373400 0.988000 C 0.365800 0.996700 0.352100 0.999900 0.321300 0.999900 C 0.303400 1.000000 0.295200 0.998900 0.290800 0.995800 Z M 0.530500 0.319400 C 0.548300 0.310600 0.548400 0.310500 0.541900 0.306400 C 0.538400 0.304200 0.530700 0.297700 0.525000 0.292100 C 0.519200 0.286400 0.514000 0.281800 0.513500 0.281800 C 0.512900 0.281800 0.512400 0.284700 0.512400 0.288100 C 0.512400 0.298900 0.499200 0.321500 0.485000 0.334700 C 0.477500 0.341700 0.471800 0.347600 0.472300 0.347800 C 0.472700 0.348100 0.475600 0.349600 0.478500 0.351300 C 0.483200 0.353900 0.485900 0.352500 0.498300 0.341200 C 0.506100 0.334100 0.520600 0.324200 0.530500 0.319400 Z"/>
</svg>
