<svg xmlns="http://www.w3.org/2000/svg" viewBox="0 0 1 1">
  <path fill="black" fill-rule="evenodd" d="M 0.292100 0.992700 C 0.281000 0.983400 0.278500 0.970000 0.283800 0.948400 C 0.286100 0.939100 0.288800 0.924200 0.289700 0.915300 C 0.290700 0.906400 0.298000 0.864400 0.306100 0.822100 C 0.324600 0.724300 0.338100 0.601000 0.332800 0.577100 C 0.329400 0.561600 0.316500 0.404700 0.313000 0.335700 C 0.309300 0.263600 0.322300 0.233300 0.368700 0.206200 C 0.373100 0.203600 0.371400 0.201700 0.356200 0.192300 C 0.309900 0.163800 0.293100 0.104400 0.317400 0.055200 C 0.334400 0.020600 0.366800 0.000200 0.405100 0.000000 C 0.430200 -0.000100 0.452100 0.007500 0.466800 0.021500 L 0.478600 0.032800 L 0.493600 0.028900 C 0.521100 0.021700 0.531500 0.020800 0.537300 0.025100 C 0.545100 0.030800 0.544300 0.044500 0.535800 0.051400 C 0.525800 0.059500 0.498500 0.072700 0.486700 0.075200 C 0.467600 0.079200 0.467000 0.082700 0.485700 0.080800 L 0.503700 0.078900 L 0.505700 0.092600 C 0.511700 0.132200 0.487700 0.179700 0.454300 0.194800 C 0.434500 0.203700 0.439000 0.208300 0.477500 0.218800 C 0.496500 0.224000 0.522600 0.229800 0.535400 0.231700 C 0.565000 0.236000 0.578200 0.231600 0.598800 0.210700 C 0.612700 0.196600 0.613100 0.195600 0.615200 0.173900 C 0.617000 0.155700 0.618700 0.150300 0.624800 0.143900 C 0.632000 0.136400 0.632300 0.134800 0.632300 0.099600 C 0.632300 0.053700 0.632500 0.053400 0.667700 0.053400 C 0.703500 0.053400 0.703400 0.053300 0.704600 0.098900 C 0.705500 0.129800 0.706500 0.137300 0.711000 0.143000 C 0.718800 0.152900 0.720600 0.170600 0.717300 0.204100 L 0.714300 0.233500 L 0.696100 0.260700 C 0.676300 0.290300 0.643900 0.325700 0.624200 0.339300 C 0.607400 0.351000 0.584000 0.358600 0.557900 0.361000 C 0.546000 0.362100 0.536200 0.364000 0.536200 0.365200 C 0.536200 0.366500 0.541500 0.409700 0.547900 0.461300 C 0.558700 0.547400 0.559300 0.555600 0.555200 0.562000 C 0.551000 0.568400 0.551800 0.574900 0.566900 0.652600 C 0.575800 0.698700 0.583600 0.739000 0.584400 0.742200 C 0.585100 0.745400 0.590300 0.788000 0.596100 0.836900 C 0.604100 0.905100 0.607600 0.926600 0.611100 0.929300 C 0.613600 0.931200 0.624800 0.936300 0.635900 0.940600 C 0.663900 0.951200 0.672900 0.966000 0.663100 0.985000 C 0.656200 0.998400 0.648300 1.000000 0.589800 1.000000 C 0.519300 1.000000 0.518300 0.999500 0.512900 0.964000 C 0.511700 0.955800 0.501400 0.911000 0.490100 0.864600 C 0.471300 0.787200 0.456200 0.738000 0.451200 0.737900 C 0.450200 0.737900 0.448300 0.742100 0.447200 0.747300 C 0.446100 0.752500 0.432200 0.795800 0.416400 0.843500 C 0.400600 0.891100 0.387600 0.931400 0.387600 0.933000 C 0.387600 0.934500 0.394100 0.939100 0.401900 0.943100 C 0.428100 0.956300 0.436400 0.977700 0.421300 0.992900 C 0.414200 1.000000 0.413700 1.000000 0.357400 1.000000 C 0.301200 1.000000 0.300600 0.999900 0.292100 0.992700 Z"/>
</svg>
