<svg xmlns="http://www.w3.org/2000/svg" viewBox="0 0 1 1">
  <path fill="black" fill-rule="evenodd" d="M 0.294000 0.977600 C 0.275700 0.965300 0.256000 0.950900 0.250300 0.945500 C 0.241400 0.937100 0.240000 0.934100 0.240000 0.924000 C 0.240000 0.913000 0.241300 0.911000 0.260200 0.892100 C 0.272900 0.879300 0.281800 0.872500 0.284300 0.873400 C 0.287000 0.874500 0.296700 0.863000 0.316000 0.835700 C 0.335100 0.808600 0.350900 0.789700 0.366900 0.774900 C 0.386900 0.756400 0.390900 0.751100 0.396200 0.736500 C 0.399600 0.727200 0.402100 0.719400 0.401800 0.719100 C 0.401500 0.718900 0.396700 0.716800 0.391100 0.714400 C 0.384700 0.711800 0.380900 0.708400 0.380900 0.705400 C 0.380900 0.702700 0.386400 0.684300 0.393000 0.664400 C 0.402600 0.635700 0.404600 0.627000 0.402500 0.621600 C 0.401100 0.617800 0.399900 0.607500 0.399900 0.598600 C 0.399900 0.582900 0.400100 0.582600 0.407300 0.582500 C 0.423200 0.582400 0.421000 0.578100 0.404800 0.577600 C 0.395600 0.577400 0.386800 0.576000 0.385300 0.574500 C 0.383500 0.572700 0.386900 0.558400 0.395400 0.531800 C 0.403100 0.507800 0.409300 0.482500 0.410800 0.468700 C 0.413400 0.446000 0.414000 0.395200 0.411600 0.404200 C 0.410900 0.406800 0.396000 0.416800 0.378300 0.426600 C 0.360700 0.436400 0.345100 0.445900 0.343600 0.447700 C 0.335600 0.457800 0.307000 0.514400 0.307000 0.520200 C 0.307000 0.523900 0.309200 0.532600 0.311900 0.539500 C 0.316700 0.551400 0.316700 0.552500 0.312200 0.564200 C 0.308500 0.574000 0.304500 0.578400 0.292100 0.586300 C 0.273600 0.598000 0.263600 0.600300 0.248600 0.596300 C 0.211600 0.586300 0.202400 0.541400 0.231400 0.512900 C 0.236100 0.508300 0.242700 0.495700 0.248100 0.480900 C 0.260300 0.447700 0.279500 0.404400 0.287400 0.392300 C 0.293100 0.383700 0.339000 0.350100 0.351900 0.345200 C 0.354400 0.344300 0.359100 0.349600 0.365700 0.361000 C 0.371300 0.370400 0.378900 0.381800 0.382700 0.386200 C 0.389200 0.393600 0.389300 0.393700 0.385400 0.387000 C 0.383100 0.383000 0.375000 0.370100 0.367500 0.358300 C 0.360000 0.346400 0.353800 0.334700 0.353800 0.332300 C 0.353800 0.327400 0.423900 0.291800 0.439900 0.288500 C 0.448000 0.286800 0.448700 0.285800 0.448700 0.276300 C 0.448700 0.266500 0.447800 0.265400 0.433700 0.257500 C 0.391600 0.233700 0.364800 0.191300 0.364700 0.148200 C 0.364700 0.138100 0.363700 0.129900 0.362500 0.129900 C 0.357500 0.129900 0.342900 0.148400 0.338900 0.159700 C 0.336500 0.166400 0.333900 0.181600 0.333200 0.193600 C 0.330400 0.235600 0.323300 0.255600 0.304100 0.275800 C 0.297900 0.282300 0.287300 0.290300 0.280600 0.293800 C 0.257900 0.305300 0.237900 0.306000 0.252200 0.294700 C 0.256100 0.291700 0.258800 0.288800 0.258400 0.288300 C 0.257900 0.287900 0.250800 0.289800 0.242600 0.292600 C 0.212300 0.303100 0.182800 0.296500 0.158100 0.273800 C 0.142200 0.259200 0.142200 0.253800 0.158000 0.258000 C 0.170700 0.261400 0.191700 0.258500 0.199300 0.252400 C 0.204800 0.247900 0.204600 0.247800 0.191700 0.247400 C 0.176100 0.246900 0.166000 0.242200 0.154000 0.229700 C 0.143300 0.218500 0.136900 0.203700 0.137000 0.190300 L 0.137100 0.180000 L 0.144500 0.188600 C 0.153900 0.199500 0.161800 0.203400 0.174800 0.203500 C 0.199600 0.203900 0.213600 0.185800 0.227900 0.134800 C 0.245200 0.073300 0.272400 0.045700 0.315700 0.045900 C 0.332300 0.046000 0.347600 0.051800 0.361000 0.063000 C 0.373700 0.073800 0.380800 0.072500 0.390000 0.058100 C 0.406100 0.032500 0.433500 0.014300 0.469700 0.005000 C 0.494500 -0.001300 0.512600 -0.001600 0.540300 0.004000 C 0.596100 0.015300 0.633000 0.049300 0.633000 0.089300 C 0.633000 0.107500 0.630900 0.110600 0.624100 0.102200 C 0.619600 0.096700 0.619200 0.096600 0.620800 0.101400 C 0.621800 0.104400 0.623200 0.115400 0.624000 0.125800 C 0.624700 0.136200 0.627200 0.150700 0.629500 0.158000 C 0.638800 0.187500 0.625100 0.230300 0.598700 0.254500 C 0.583500 0.268400 0.560800 0.278000 0.539500 0.279500 C 0.530100 0.280200 0.528700 0.281200 0.528700 0.286700 C 0.528700 0.293500 0.525900 0.292000 0.599000 0.324000 C 0.627200 0.336300 0.627800 0.336900 0.626300 0.350400 C 0.625300 0.358300 0.625600 0.359600 0.627100 0.354900 C 0.629600 0.347000 0.634800 0.347000 0.655600 0.355200 L 0.668800 0.360400 L 0.693000 0.336700 C 0.714800 0.315400 0.717100 0.312300 0.715500 0.305400 C 0.712300 0.290800 0.716900 0.276500 0.728800 0.264000 C 0.746700 0.245500 0.770400 0.244200 0.789300 0.260800 C 0.806800 0.276100 0.811500 0.299300 0.801100 0.319600 C 0.795800 0.330000 0.780500 0.344000 0.774400 0.344000 C 0.772800 0.344000 0.769000 0.348600 0.766200 0.354200 C 0.752300 0.381500 0.708500 0.431100 0.691300 0.439100 C 0.676700 0.445900 0.671200 0.445600 0.638200 0.436400 C 0.614300 0.429600 0.609400 0.429000 0.605900 0.432100 C 0.603000 0.434800 0.600500 0.435000 0.596900 0.433000 C 0.594200 0.431500 0.591600 0.430700 0.591100 0.431200 C 0.590600 0.431700 0.588800 0.450900 0.587100 0.473900 C 0.585300 0.497000 0.583300 0.516800 0.582600 0.518000 C 0.580500 0.521300 0.582900 0.520800 0.613900 0.512100 C 0.634400 0.506300 0.643100 0.504900 0.645600 0.507000 C 0.648100 0.509100 0.658000 0.508600 0.680000 0.505400 C 0.697000 0.503000 0.714400 0.501800 0.718700 0.502800 C 0.732900 0.506100 0.748100 0.516700 0.754000 0.527400 C 0.761300 0.540700 0.763700 0.582400 0.761000 0.650800 C 0.759100 0.698700 0.759100 0.698800 0.764500 0.693700 C 0.772100 0.686700 0.782500 0.684600 0.788400 0.689000 C 0.792700 0.692100 0.795800 0.691800 0.809000 0.687500 C 0.821800 0.683300 0.826500 0.682900 0.835500 0.685300 C 0.857100 0.691100 0.866200 0.704600 0.861900 0.724100 C 0.859300 0.736000 0.833200 0.761400 0.814600 0.770200 C 0.748700 0.801200 0.727800 0.807900 0.711600 0.803300 C 0.697000 0.799100 0.691900 0.789300 0.690500 0.763300 C 0.689200 0.738000 0.692100 0.729000 0.701600 0.728900 C 0.706200 0.728900 0.706700 0.728300 0.703700 0.726400 C 0.699400 0.723700 0.683900 0.658600 0.679000 0.622700 C 0.677300 0.610300 0.675500 0.599700 0.674900 0.599100 C 0.674300 0.598600 0.666600 0.600800 0.657600 0.604200 L 0.641400 0.610200 L 0.639600 0.629000 C 0.638600 0.639300 0.636400 0.648600 0.634700 0.649700 C 0.633000 0.650800 0.612200 0.656600 0.588400 0.662500 L 0.545200 0.673400 L 0.532100 0.705800 C 0.524900 0.723500 0.517600 0.739800 0.515800 0.741900 C 0.513900 0.744200 0.509200 0.745300 0.503400 0.744600 L 0.494100 0.743500 L 0.480400 0.771500 C 0.465500 0.802100 0.462900 0.804800 0.382700 0.875200 C 0.353900 0.900500 0.351100 0.903800 0.355300 0.906900 C 0.359900 0.910300 0.364700 0.917400 0.369700 0.928500 C 0.371500 0.932400 0.375900 0.934700 0.383600 0.936000 C 0.391300 0.937200 0.398300 0.941000 0.405800 0.948100 C 0.415400 0.957000 0.417000 0.960200 0.418200 0.972500 C 0.419400 0.984700 0.418700 0.987600 0.413300 0.993300 C 0.407200 0.999800 0.406000 1.000000 0.367200 1.000000 L 0.327300 1.000000 L 0.294000 0.977600 Z"/>
</svg>
