<svg xmlns="http://www.w3.org/2000/svg" viewBox="0 0 1 1">
  <path fill="black" fill-rule="evenodd" d="M 0.609400 0.994900 C 0.604700 0.991300 0.600600 0.982900 0.597000 0.969100 C 0.594000 0.957800 0.582200 0.923300 0.570600 0.892300 C 0.559000 0.861300 0.545700 0.823900 0.541000 0.809300 C 0.532800 0.784000 0.512500 0.736600 0.509800 0.736600 C 0.509100 0.736600 0.502200 0.748300 0.494500 0.762600 C 0.481900 0.785800 0.474300 0.794500 0.423100 0.845100 L 0.365700 0.901700 L 0.377700 0.926500 C 0.384300 0.940100 0.389700 0.955600 0.389700 0.960800 C 0.389700 0.973600 0.377500 0.987900 0.364400 0.990300 C 0.349800 0.993100 0.335700 0.983600 0.292500 0.942100 L 0.256200 0.907100 L 0.256200 0.892900 C 0.256300 0.880300 0.257800 0.877100 0.269000 0.864700 C 0.276000 0.857000 0.289200 0.840800 0.298300 0.828500 C 0.307500 0.816300 0.331200 0.786000 0.351000 0.761200 C 0.387000 0.716000 0.387000 0.716000 0.394100 0.688000 C 0.398000 0.672600 0.404100 0.644900 0.407600 0.626500 C 0.413200 0.597400 0.413500 0.590900 0.410400 0.578400 C 0.406900 0.564700 0.407900 0.483300 0.412100 0.441700 L 0.413500 0.426800 L 0.406400 0.440200 C 0.397100 0.457600 0.381800 0.500900 0.375000 0.529500 C 0.368600 0.556100 0.365700 0.562200 0.355300 0.570300 C 0.339100 0.583000 0.312700 0.580700 0.300800 0.565600 C 0.289200 0.550800 0.288500 0.540100 0.296600 0.498700 C 0.309000 0.435000 0.322600 0.392300 0.345300 0.346500 C 0.387700 0.260400 0.431800 0.212800 0.476600 0.204400 C 0.490200 0.201900 0.490400 0.199300 0.477500 0.194600 C 0.464700 0.190000 0.441700 0.169800 0.432300 0.155000 C 0.400900 0.105300 0.421600 0.034500 0.475200 0.008200 C 0.489800 0.001000 0.495400 0.000000 0.518600 0.000000 C 0.540900 0.000100 0.547800 0.001300 0.560100 0.007300 C 0.580000 0.017100 0.598900 0.036600 0.608600 0.057200 C 0.615300 0.071500 0.616500 0.078000 0.616500 0.100700 C 0.616500 0.123500 0.615300 0.129900 0.608600 0.144300 C 0.598900 0.164900 0.579800 0.184600 0.560900 0.193500 C 0.549800 0.198700 0.546800 0.201600 0.546800 0.207300 C 0.546800 0.211700 0.548900 0.215200 0.552400 0.216300 C 0.561800 0.219200 0.585300 0.246600 0.593100 0.263600 C 0.600800 0.280600 0.608900 0.314000 0.609000 0.329400 C 0.609000 0.334400 0.611100 0.350500 0.613600 0.364900 C 0.619500 0.399000 0.627400 0.410800 0.682500 0.467200 C 0.727900 0.513700 0.732900 0.521800 0.727600 0.540800 C 0.721800 0.561200 0.709100 0.570600 0.687200 0.570600 C 0.672100 0.570600 0.671400 0.570200 0.636800 0.540800 L 0.601600 0.511000 L 0.600200 0.544500 C 0.599200 0.566000 0.600000 0.582800 0.602300 0.591400 C 0.604200 0.598700 0.614400 0.636700 0.624900 0.675900 C 0.635400 0.715000 0.652900 0.785700 0.663900 0.833000 C 0.674800 0.880300 0.685100 0.919800 0.686800 0.920800 C 0.688500 0.921900 0.697600 0.923600 0.707200 0.924700 C 0.735100 0.927800 0.749200 0.944300 0.741900 0.965200 C 0.737500 0.977900 0.728700 0.981700 0.681900 0.991400 C 0.631900 1.001800 0.619200 1.002500 0.609400 0.994900 Z"/>
</svg>
