<svg xmlns="http://www.w3.org/2000/svg" viewBox="0 0 1 1">
  <path fill="black" fill-rule="evenodd" d="M 0.086600 0.998500 C 0.084500 0.997700 0.065200 0.981900 0.043600 0.963300 C 0.011800 0.936100 0.003800 0.927900 0.001600 0.920400 C -0.003800 0.902500 0.005000 0.883300 0.022700 0.874100 C 0.027000 0.871900 0.047300 0.853800 0.067900 0.833800 C 0.088500 0.813800 0.115000 0.788600 0.126800 0.777800 L 0.148200 0.758300 L 0.176100 0.698900 C 0.193700 0.661200 0.203200 0.638300 0.201900 0.636300 C 0.200800 0.634500 0.199300 0.592500 0.198600 0.542800 L 0.197400 0.452600 L 0.175400 0.471600 C 0.157800 0.486900 0.151800 0.494000 0.145300 0.507100 C 0.129900 0.538100 0.111500 0.583700 0.111500 0.591000 C 0.111400 0.600500 0.103500 0.613300 0.094700 0.617800 C 0.068600 0.631300 0.040600 0.618300 0.035200 0.590100 C 0.033600 0.581500 0.038000 0.567300 0.056900 0.519800 C 0.083600 0.452800 0.090300 0.440100 0.112000 0.415700 C 0.123300 0.402900 0.146200 0.379200 0.162700 0.363100 C 0.188400 0.338100 0.196100 0.332100 0.215400 0.322500 C 0.242500 0.308900 0.260500 0.304800 0.285700 0.306300 C 0.299500 0.307100 0.307800 0.309100 0.317600 0.314100 C 0.344800 0.328000 0.356800 0.342900 0.400000 0.416400 L 0.427800 0.463700 L 0.469400 0.494300 C 0.492300 0.511100 0.512300 0.524600 0.514000 0.524200 C 0.518300 0.523200 0.576900 0.472600 0.580600 0.466600 C 0.608100 0.422300 0.638300 0.381300 0.654100 0.367100 C 0.684400 0.339700 0.727100 0.336200 0.756700 0.358700 C 0.769600 0.368500 0.782500 0.386900 0.786500 0.401200 C 0.788100 0.406900 0.797900 0.426700 0.808300 0.445300 L 0.827200 0.479000 L 0.869200 0.516200 C 0.892300 0.536700 0.912200 0.556000 0.913400 0.559200 C 0.914600 0.562400 0.915600 0.569900 0.915600 0.576000 C 0.915600 0.591800 0.903900 0.604500 0.888100 0.606100 C 0.881500 0.606700 0.874800 0.605900 0.871600 0.604000 C 0.868600 0.602200 0.849300 0.587000 0.828700 0.570200 C 0.808000 0.553500 0.790900 0.539700 0.790500 0.539700 C 0.790200 0.539700 0.790000 0.562000 0.790200 0.589200 L 0.790600 0.638600 L 0.820100 0.688700 C 0.836300 0.716200 0.854700 0.747200 0.860800 0.757600 C 0.867000 0.767900 0.887700 0.799800 0.906900 0.828500 L 0.941700 0.880700 L 0.961100 0.880700 C 0.979400 0.880800 0.980900 0.881200 0.989200 0.888900 C 1.000000 0.898800 1.003000 0.913100 0.996900 0.924900 C 0.992000 0.934400 0.919700 0.991100 0.907400 0.995200 C 0.884600 1.002700 0.860900 0.982300 0.860800 0.955000 C 0.860700 0.946800 0.840400 0.916100 0.787800 0.844700 C 0.777700 0.831000 0.767400 0.815900 0.765000 0.811100 C 0.760000 0.801400 0.721800 0.743900 0.720400 0.743900 C 0.718900 0.743900 0.680000 0.804200 0.674600 0.815000 C 0.671600 0.820900 0.655900 0.837900 0.636900 0.855800 L 0.604400 0.886400 L 0.594700 0.877600 C 0.583800 0.867800 0.563400 0.862000 0.549100 0.864700 C 0.541200 0.866100 0.540300 0.865500 0.531300 0.852500 C 0.526000 0.844900 0.522200 0.837600 0.522600 0.836300 C 0.523100 0.835000 0.538700 0.817300 0.557300 0.796900 L 0.591200 0.759900 L 0.620100 0.702000 C 0.648700 0.644500 0.648900 0.644000 0.645700 0.634800 C 0.643700 0.629100 0.641900 0.604400 0.640800 0.568500 C 0.639900 0.537100 0.638700 0.510900 0.638000 0.510300 C 0.637400 0.509700 0.631500 0.514100 0.624800 0.520100 C 0.618100 0.526100 0.597900 0.542200 0.580000 0.555900 C 0.562100 0.569600 0.546700 0.582800 0.545900 0.585200 C 0.542600 0.594300 0.531500 0.604500 0.522000 0.607000 C 0.508100 0.610800 0.495300 0.607600 0.485000 0.597900 C 0.480100 0.593300 0.455700 0.575500 0.430700 0.558200 C 0.386500 0.527900 0.366400 0.509400 0.364900 0.497800 C 0.364600 0.495500 0.363700 0.522800 0.363000 0.558400 L 0.361700 0.623100 L 0.379400 0.649500 C 0.397100 0.675800 0.430100 0.727800 0.495200 0.832000 L 0.529200 0.886500 L 0.550000 0.886100 C 0.566600 0.885700 0.572300 0.886600 0.578500 0.890400 C 0.595400 0.900900 0.599400 0.928800 0.585900 0.942800 C 0.582300 0.946600 0.560000 0.960000 0.536300 0.972500 C 0.499300 0.992100 0.491500 0.995300 0.481300 0.995300 C 0.470800 0.995300 0.468200 0.994200 0.460000 0.985900 C 0.454600 0.980500 0.449200 0.971900 0.447300 0.965500 C 0.443500 0.952700 0.364800 0.835000 0.318800 0.773100 L 0.287700 0.731300 L 0.275600 0.751900 C 0.268900 0.763300 0.257800 0.782700 0.251000 0.795100 C 0.241500 0.812100 0.233500 0.822400 0.217900 0.837400 C 0.206600 0.848300 0.180300 0.873700 0.159400 0.893800 L 0.121400 0.930400 L 0.126400 0.943000 C 0.135600 0.966400 0.131400 0.988400 0.116000 0.996900 C 0.110100 1.000200 0.093300 1.001100 0.086600 0.998500 Z M 0.575000 0.345500 C 0.567600 0.343800 0.554600 0.334500 0.554600 0.330800 C 0.554600 0.330000 0.557700 0.328000 0.561500 0.326300 C 0.571500 0.321900 0.576800 0.311100 0.580600 0.287500 C 0.584600 0.262600 0.588900 0.253500 0.600900 0.244400 C 0.607600 0.239300 0.613400 0.237300 0.624200 0.236500 L 0.638500 0.235500 L 0.641200 0.220700 C 0.644900 0.200700 0.653000 0.185500 0.666800 0.172600 C 0.703200 0.138600 0.754400 0.138400 0.790600 0.172300 C 0.835800 0.214500 0.823400 0.290300 0.767100 0.317000 C 0.748700 0.325700 0.722800 0.327800 0.703500 0.322200 C 0.686200 0.317200 0.662400 0.299800 0.654200 0.286300 C 0.650800 0.280600 0.647200 0.276000 0.646300 0.275900 C 0.642000 0.275700 0.634600 0.289500 0.633100 0.300300 C 0.630800 0.317200 0.622400 0.330500 0.609300 0.338400 C 0.596400 0.346100 0.586600 0.348100 0.575000 0.345500 Z M 0.291000 0.288200 C 0.243000 0.278200 0.207200 0.226800 0.215800 0.180200 C 0.223700 0.137300 0.252400 0.108800 0.295100 0.101300 C 0.324900 0.096000 0.356600 0.107600 0.379100 0.131900 C 0.417300 0.173200 0.410700 0.236200 0.364400 0.271100 C 0.344600 0.286100 0.314500 0.293100 0.291000 0.288200 Z"/>
</svg>
