<svg xmlns="http://www.w3.org/2000/svg" viewBox="0 0 1 1">
  <path fill="black" fill-rule="evenodd" d="M 0.579900 0.996400 C 0.545200 0.985400 0.521000 0.952400 0.521000 0.916300 C 0.521000 0.907100 0.525800 0.888600 0.530900 0.878100 C 0.540300 0.858400 0.566800 0.838200 0.587600 0.834700 C 0.595100 0.833400 0.595200 0.833200 0.599200 0.819700 C 0.601500 0.812100 0.603300 0.805400 0.603300 0.804700 C 0.603300 0.804000 0.599300 0.802500 0.594300 0.801200 C 0.563500 0.793500 0.537900 0.769600 0.528300 0.739400 C 0.525300 0.730100 0.524100 0.719100 0.522900 0.690100 C 0.520900 0.638100 0.521900 0.636400 0.555000 0.634700 L 0.574500 0.633700 L 0.525600 0.571500 C 0.498600 0.537300 0.473500 0.505200 0.469700 0.500300 L 0.462900 0.491200 L 0.452200 0.492300 C 0.443800 0.493100 0.428900 0.490700 0.380100 0.480700 C 0.281200 0.460400 0.289600 0.463600 0.253000 0.432100 C 0.218900 0.402800 0.218200 0.402600 0.243500 0.429500 C 0.261400 0.448600 0.269800 0.456000 0.277300 0.459600 C 0.282800 0.462200 0.288200 0.464300 0.289300 0.464300 C 0.291800 0.464300 0.292200 0.571400 0.289800 0.580100 C 0.288900 0.583300 0.289200 0.617100 0.290600 0.656600 C 0.291900 0.695600 0.294400 0.769200 0.296100 0.820300 C 0.298800 0.901300 0.299600 0.913300 0.302300 0.915000 C 0.318800 0.925300 0.326600 0.939300 0.325500 0.956700 C 0.324500 0.972800 0.316600 0.984400 0.302100 0.991500 L 0.291700 0.996600 L 0.248000 0.995700 C 0.195400 0.994600 0.208300 0.994600 0.158800 0.995700 C 0.110700 0.996700 0.103500 0.995400 0.091900 0.983400 C 0.082300 0.973300 0.078900 0.965600 0.078900 0.953600 C 0.078900 0.941500 0.082400 0.932000 0.090200 0.923200 L 0.095700 0.916900 L 0.096500 0.755500 C 0.097300 0.600000 0.097200 0.593700 0.093700 0.583300 C 0.090200 0.572900 0.090100 0.569400 0.092100 0.494900 C 0.093200 0.452300 0.094700 0.395000 0.095300 0.367700 C 0.096100 0.336300 0.097500 0.313500 0.099200 0.305900 C 0.105600 0.277300 0.126000 0.251400 0.152400 0.238400 C 0.181800 0.224000 0.207300 0.223700 0.235600 0.237700 C 0.266600 0.253000 0.289400 0.288200 0.289400 0.320700 L 0.289400 0.331400 L 0.312900 0.354600 L 0.336300 0.377800 L 0.390300 0.390400 C 0.420000 0.397400 0.448000 0.403100 0.452600 0.403100 C 0.464000 0.403100 0.479800 0.411200 0.486600 0.420600 C 0.493900 0.430700 0.496700 0.444300 0.494000 0.456700 C 0.492100 0.465900 0.492200 0.466700 0.497300 0.473500 C 0.505700 0.484500 0.587100 0.589100 0.606000 0.613100 L 0.623000 0.634600 L 0.645700 0.634600 L 0.668400 0.634600 L 0.668400 0.537200 L 0.668400 0.439700 L 0.673200 0.434000 C 0.682700 0.422700 0.695900 0.421900 0.736300 0.430100 C 0.799500 0.442900 0.856100 0.484400 0.884400 0.538900 C 0.902200 0.573100 0.910300 0.605900 0.910300 0.643200 C 0.910300 0.711900 0.882100 0.773300 0.840400 0.795400 L 0.827800 0.802100 L 0.835100 0.817900 C 0.841900 0.832600 0.842700 0.833700 0.848200 0.833700 C 0.857000 0.833700 0.873400 0.840000 0.885700 0.848200 C 0.920300 0.871100 0.931600 0.922600 0.910200 0.959200 C 0.903200 0.971300 0.886100 0.986200 0.871700 0.993100 C 0.859500 0.998900 0.857600 0.999200 0.836800 0.999100 C 0.816100 0.999100 0.814000 0.998700 0.801800 0.993000 C 0.777400 0.981600 0.759300 0.959200 0.753900 0.933900 L 0.751800 0.923500 L 0.720300 0.924000 L 0.688700 0.924600 L 0.686600 0.934100 C 0.683000 0.949700 0.676900 0.961200 0.666100 0.972700 C 0.653800 0.985700 0.645600 0.991100 0.630300 0.996300 C 0.615700 1.001200 0.595000 1.001300 0.579900 0.996400 Z M 0.754100 0.899100 C 0.758900 0.876100 0.775300 0.853800 0.795200 0.843200 C 0.800200 0.840600 0.804200 0.837700 0.804200 0.836900 C 0.804200 0.836000 0.801300 0.828900 0.797700 0.821100 L 0.791100 0.806800 L 0.716000 0.807300 L 0.641000 0.807800 L 0.636500 0.821100 C 0.634000 0.828400 0.632000 0.835000 0.632000 0.835700 C 0.632000 0.836400 0.636900 0.839500 0.643000 0.842400 C 0.662800 0.852100 0.680900 0.874800 0.685600 0.895700 C 0.686800 0.901100 0.688100 0.906500 0.688600 0.907800 C 0.689100 0.909600 0.697200 0.910200 0.720600 0.910200 L 0.751800 0.910200 L 0.754100 0.899100 Z M 0.200000 0.203200 C 0.149900 0.191100 0.115000 0.139600 0.122900 0.089300 C 0.131900 0.031800 0.188700 -0.009500 0.243100 0.001900 C 0.282000 0.010100 0.312700 0.039200 0.323000 0.077800 C 0.326700 0.091800 0.326600 0.118400 0.322700 0.131400 C 0.314800 0.158200 0.294300 0.183900 0.272200 0.194900 C 0.250700 0.205500 0.222900 0.208700 0.200000 0.203200 Z"/>
</svg>
