<svg xmlns="http://www.w3.org/2000/svg" viewBox="0 0 1 1">
  <path fill="black" fill-rule="evenodd" d="M 0.264400 0.996200 C 0.253100 0.988600 0.252600 0.979200 0.261900 0.950000 C 0.264100 0.943100 0.265600 0.937000 0.265300 0.936500 C 0.265000 0.936000 0.259200 0.934600 0.252500 0.933400 C 0.234100 0.930100 0.227800 0.925900 0.227800 0.916500 C 0.227800 0.914400 0.234200 0.887200 0.241900 0.855900 C 0.259800 0.783800 0.273500 0.724800 0.286200 0.664700 C 0.291800 0.638600 0.296700 0.616000 0.297200 0.614500 C 0.297800 0.612500 0.296400 0.611200 0.291700 0.609700 C 0.278000 0.605300 0.270100 0.600100 0.267000 0.593700 L 0.264000 0.587400 L 0.274300 0.535600 C 0.279900 0.507200 0.292000 0.446000 0.301100 0.399700 C 0.318400 0.312000 0.325400 0.284600 0.336200 0.262000 C 0.342400 0.249200 0.353000 0.236800 0.362100 0.231700 C 0.365900 0.229500 0.366200 0.229900 0.355400 0.223800 C 0.350800 0.221200 0.344700 0.217200 0.341700 0.215000 C 0.335200 0.210100 0.327900 0.195900 0.327900 0.188300 C 0.327900 0.185300 0.330800 0.173600 0.334400 0.162400 C 0.338000 0.151200 0.341800 0.138100 0.342800 0.133200 C 0.348700 0.104400 0.339200 0.066300 0.322600 0.052100 C 0.313700 0.044500 0.307400 0.043400 0.293000 0.046900 C 0.279400 0.050300 0.274500 0.048800 0.274500 0.041400 C 0.274500 0.029300 0.294600 0.010500 0.313800 0.004500 C 0.345700 -0.005300 0.377300 0.000500 0.430100 0.025800 C 0.456700 0.038600 0.510900 0.069700 0.538800 0.088200 C 0.555900 0.099500 0.557200 0.100800 0.557700 0.106200 C 0.558100 0.111100 0.556900 0.113500 0.550300 0.121200 C 0.532900 0.141600 0.520000 0.165600 0.508100 0.200200 C 0.497000 0.232500 0.490100 0.242600 0.476200 0.246300 C 0.472600 0.247300 0.469600 0.248300 0.469600 0.248600 C 0.469600 0.248900 0.472200 0.253500 0.475400 0.258800 C 0.482500 0.270500 0.489600 0.288800 0.497000 0.314500 C 0.504000 0.338600 0.513400 0.364700 0.517600 0.371800 C 0.520600 0.376900 0.521200 0.377200 0.530600 0.377000 C 0.536100 0.376900 0.557600 0.372900 0.578500 0.368200 C 0.599300 0.363500 0.618400 0.359600 0.620900 0.359600 C 0.623300 0.359600 0.626700 0.360900 0.628400 0.362500 C 0.631500 0.365200 0.631800 0.365100 0.636100 0.359600 C 0.643000 0.350600 0.648400 0.346200 0.653400 0.345200 C 0.656600 0.344500 0.659600 0.341700 0.663300 0.335700 C 0.666300 0.331000 0.670300 0.325300 0.672300 0.323000 C 0.676300 0.318500 0.680800 0.311800 0.727000 0.243400 C 0.765500 0.186300 0.766700 0.184600 0.769300 0.184600 C 0.776800 0.184600 0.773100 0.191300 0.710300 0.291900 C 0.697100 0.312800 0.686400 0.331000 0.686400 0.332200 C 0.686400 0.333400 0.684700 0.336500 0.682500 0.339100 C 0.675300 0.347700 0.674400 0.350800 0.676700 0.357300 C 0.678500 0.362300 0.678400 0.364800 0.675900 0.374200 C 0.671400 0.391600 0.663300 0.400300 0.649600 0.402700 L 0.642300 0.403900 L 0.642200 0.449700 C 0.642100 0.498500 0.640500 0.514500 0.632300 0.548900 C 0.627200 0.570400 0.621900 0.584400 0.617100 0.589300 C 0.610200 0.596100 0.604700 0.594600 0.566500 0.575600 C 0.542600 0.563700 0.531300 0.558900 0.531300 0.560600 C 0.531300 0.561900 0.534000 0.577100 0.537300 0.594300 C 0.540600 0.611500 0.548400 0.653800 0.554700 0.688200 C 0.561000 0.722600 0.571100 0.777700 0.577200 0.810700 C 0.592300 0.892400 0.594700 0.906600 0.594700 0.912700 C 0.594700 0.921000 0.587800 0.927900 0.576300 0.931100 C 0.567700 0.933500 0.566700 0.934200 0.568100 0.936800 C 0.571000 0.942200 0.584600 0.948700 0.604300 0.954300 C 0.618100 0.958200 0.624700 0.960900 0.628200 0.964300 C 0.637600 0.973300 0.638600 0.987400 0.630400 0.995100 L 0.626100 0.999200 L 0.557100 0.999100 C 0.490000 0.999100 0.488000 0.999000 0.483500 0.995600 C 0.480900 0.993700 0.477800 0.989100 0.476500 0.985200 C 0.474600 0.979100 0.474600 0.976100 0.477000 0.963400 C 0.478400 0.955300 0.479600 0.947600 0.479600 0.946400 C 0.479600 0.944500 0.468900 0.944100 0.418900 0.944100 C 0.385600 0.944100 0.358600 0.944700 0.359000 0.945400 C 0.360200 0.947400 0.370000 0.951100 0.384200 0.955000 C 0.399900 0.959400 0.408200 0.964500 0.411900 0.972200 C 0.415100 0.979100 0.415400 0.984900 0.412600 0.990900 C 0.408500 0.999800 0.407000 1.000000 0.335700 1.000000 C 0.270000 1.000000 0.270000 1.000000 0.264400 0.996200 Z"/>
</svg>
