<svg xmlns="http://www.w3.org/2000/svg" viewBox="0 0 1 1">
  <path fill="black" fill-rule="evenodd" d="M 0.310100 0.992500 C 0.299200 0.978700 0.304700 0.962400 0.328500 0.937400 L 0.338000 0.927500 L 0.343900 0.815100 C 0.347100 0.753300 0.351100 0.674500 0.352900 0.640100 C 0.355700 0.583100 0.356500 0.577100 0.361700 0.572500 C 0.364900 0.569800 0.366000 0.567600 0.364200 0.567600 C 0.362500 0.567600 0.358500 0.563400 0.355400 0.558300 C 0.350200 0.549700 0.349900 0.545600 0.351400 0.500700 C 0.352300 0.474100 0.353500 0.450800 0.354100 0.448900 C 0.354900 0.446500 0.360200 0.447800 0.371700 0.453200 C 0.386300 0.460000 0.391300 0.460900 0.416600 0.460600 C 0.451800 0.460300 0.482900 0.452700 0.520400 0.434900 C 0.540200 0.425600 0.546300 0.421500 0.543300 0.419700 C 0.539800 0.417500 0.540000 0.416100 0.544700 0.410800 C 0.548600 0.406400 0.549000 0.405000 0.546000 0.406200 C 0.484100 0.431400 0.452600 0.439500 0.416900 0.439500 C 0.394300 0.439500 0.388800 0.438500 0.373900 0.431400 C 0.330500 0.410800 0.304000 0.354700 0.312300 0.301100 C 0.320900 0.245500 0.358000 0.210000 0.415600 0.202300 C 0.427900 0.200700 0.437900 0.198600 0.437900 0.197700 C 0.437900 0.196800 0.434000 0.193800 0.429100 0.190900 C 0.404700 0.176500 0.389700 0.155800 0.382100 0.126100 C 0.370100 0.079400 0.393500 0.029500 0.437500 0.007900 C 0.451700 0.000900 0.456800 0.000000 0.480600 0.000000 C 0.503900 0.000000 0.509900 0.001000 0.523700 0.007500 C 0.573400 0.030800 0.596100 0.093500 0.572900 0.143400 C 0.563300 0.164200 0.550700 0.179400 0.535800 0.188100 C 0.528900 0.192100 0.523300 0.196400 0.523300 0.197600 C 0.523300 0.198800 0.533500 0.200600 0.546000 0.201600 C 0.601900 0.206300 0.634300 0.226600 0.667300 0.277600 C 0.688900 0.311100 0.695000 0.328700 0.695200 0.358500 C 0.695400 0.379500 0.694300 0.386100 0.689200 0.395600 C 0.673600 0.424800 0.644300 0.438900 0.606600 0.435500 C 0.595100 0.434500 0.583500 0.432800 0.580800 0.431800 C 0.576500 0.430300 0.576500 0.430800 0.581300 0.436100 C 0.589700 0.445800 0.610400 0.454400 0.625500 0.454600 L 0.639300 0.454800 L 0.641000 0.469200 C 0.643800 0.492500 0.643000 0.554800 0.639900 0.557900 C 0.638000 0.559800 0.638000 0.581600 0.639800 0.623200 C 0.641400 0.657500 0.644700 0.740000 0.647200 0.806500 L 0.651700 0.927500 L 0.670000 0.946400 C 0.686200 0.963100 0.688300 0.966600 0.688300 0.976500 C 0.688300 0.984500 0.686400 0.989400 0.681500 0.994000 C 0.674900 1.000200 0.673500 1.000300 0.617300 0.999500 C 0.547700 0.998400 0.550800 1.000100 0.547700 0.959700 C 0.544500 0.916100 0.503800 0.663800 0.499400 0.659300 C 0.494700 0.654600 0.494300 0.656100 0.447500 0.904700 C 0.445100 0.917200 0.442200 0.940800 0.441100 0.957000 C 0.439100 0.984500 0.438400 0.987100 0.431200 0.993300 C 0.423600 0.999800 0.422000 1.000000 0.369700 1.000000 L 0.316000 1.000000 L 0.310100 0.992500 Z M 0.516200 0.326000 C 0.537600 0.324300 0.556900 0.324700 0.577300 0.327100 C 0.593800 0.329000 0.608100 0.329800 0.609300 0.328800 C 0.610400 0.327800 0.609000 0.323100 0.606100 0.318400 C 0.601000 0.310000 0.599800 0.309600 0.569900 0.306300 C 0.536000 0.302500 0.497000 0.304900 0.458100 0.313300 C 0.438800 0.317400 0.436900 0.317400 0.434500 0.313200 C 0.432200 0.309000 0.417900 0.300100 0.413600 0.300100 C 0.412500 0.300100 0.416300 0.305300 0.422000 0.311500 C 0.427600 0.317800 0.432200 0.324100 0.432200 0.325500 C 0.432200 0.331700 0.441500 0.331700 0.516200 0.326000 Z"/>
</svg>
