<svg xmlns="http://www.w3.org/2000/svg" viewBox="0 0 1 1">
  <path fill="black" fill-rule="evenodd" d="M 0.741200 0.998700 C 0.720900 0.995100 0.703500 0.985100 0.689100 0.968700 C 0.652400 0.926900 0.663400 0.860500 0.711700 0.832200 C 0.778900 0.792800 0.864400 0.859800 0.842000 0.934200 C 0.828600 0.978800 0.785400 1.006500 0.741200 0.998700 Z M 0.211500 0.992000 C 0.143800 0.956400 0.139600 0.863700 0.203700 0.823000 C 0.251400 0.792800 0.315200 0.810900 0.338700 0.861300 C 0.360900 0.909000 0.344000 0.963900 0.299700 0.988000 C 0.283600 0.996800 0.274600 0.998800 0.251800 0.998600 C 0.234400 0.998500 0.219100 0.996000 0.211500 0.992000 Z M 0.383600 0.922800 C 0.379400 0.918600 0.377100 0.909000 0.377100 0.895200 C 0.377100 0.869900 0.362400 0.835600 0.343100 0.815400 C 0.312800 0.783500 0.257000 0.769500 0.217600 0.783700 C 0.207500 0.787400 0.197400 0.790800 0.195300 0.791300 C 0.193100 0.791800 0.189600 0.781400 0.187600 0.768300 C 0.184200 0.746500 0.184600 0.743600 0.192600 0.735600 C 0.201300 0.726900 0.203800 0.726800 0.331400 0.726800 C 0.483800 0.726800 0.479200 0.725600 0.490300 0.765700 C 0.495700 0.784900 0.498800 0.790200 0.505100 0.790200 C 0.511000 0.790200 0.512300 0.788300 0.510200 0.783000 C 0.508700 0.779100 0.502000 0.751900 0.495500 0.722700 C 0.489000 0.693400 0.482600 0.665800 0.481300 0.661300 C 0.479100 0.653500 0.475000 0.653100 0.391000 0.652000 C 0.292000 0.650800 0.282900 0.648800 0.264200 0.624200 C 0.252600 0.609100 0.252300 0.607600 0.250300 0.545000 C 0.249200 0.510000 0.249500 0.447200 0.250900 0.405600 C 0.254100 0.314700 0.260900 0.289000 0.290300 0.257600 C 0.313200 0.233100 0.335900 0.224000 0.368500 0.226400 C 0.410400 0.229400 0.446800 0.263500 0.453100 0.305700 C 0.455300 0.320400 0.459900 0.327300 0.481000 0.347600 L 0.506300 0.371900 L 0.545000 0.374500 C 0.655900 0.382100 0.647800 0.380500 0.663600 0.397100 C 0.676500 0.410600 0.679700 0.412000 0.695100 0.410500 C 0.716300 0.408500 0.730100 0.420400 0.737300 0.447100 C 0.741400 0.462200 0.741100 0.468200 0.734900 0.486300 C 0.726700 0.510500 0.728100 0.522600 0.754300 0.658100 C 0.766900 0.723700 0.767200 0.724400 0.779400 0.728600 C 0.800500 0.736000 0.817900 0.752400 0.829300 0.775800 C 0.846600 0.811000 0.838700 0.818700 0.804300 0.800400 C 0.777700 0.786200 0.735700 0.786100 0.706500 0.799900 C 0.668600 0.817900 0.643100 0.854000 0.636700 0.898600 C 0.635100 0.909800 0.632000 0.921300 0.629800 0.924100 C 0.626700 0.928000 0.597200 0.929300 0.507800 0.929300 C 0.406200 0.929300 0.389100 0.928400 0.383600 0.922800 Z M 0.637000 0.776900 C 0.655500 0.754500 0.680200 0.737100 0.702900 0.730500 C 0.723100 0.724600 0.724400 0.723500 0.722400 0.713200 C 0.721300 0.707200 0.713400 0.659400 0.704800 0.607000 C 0.691900 0.527500 0.687900 0.510300 0.680400 0.502300 C 0.675400 0.497000 0.670300 0.486000 0.669000 0.477800 C 0.666600 0.463600 0.658800 0.458100 0.653300 0.467000 C 0.649600 0.473000 0.608700 0.472100 0.533600 0.464300 L 0.467100 0.457500 L 0.438500 0.433400 C 0.403500 0.403900 0.400600 0.408400 0.434400 0.439700 L 0.459000 0.462500 L 0.459000 0.497000 L 0.459000 0.531500 L 0.498900 0.533100 C 0.543400 0.535000 0.560200 0.541700 0.573500 0.563200 C 0.582900 0.578300 0.620300 0.743800 0.620400 0.770700 C 0.620500 0.781400 0.621800 0.790200 0.623300 0.790200 C 0.624700 0.790200 0.630900 0.784200 0.637000 0.776900 Z M 0.198500 0.700400 C 0.180200 0.689300 0.181500 0.695800 0.164300 0.520400 C 0.152000 0.393600 0.151900 0.391500 0.159500 0.381300 C 0.165100 0.373700 0.171800 0.370500 0.183500 0.369600 C 0.215100 0.367200 0.217000 0.374600 0.231700 0.554900 C 0.235400 0.599900 0.239400 0.642700 0.240500 0.650000 L 0.242500 0.663300 L 0.354000 0.663300 C 0.435300 0.663300 0.466800 0.664700 0.470400 0.668300 C 0.476800 0.674600 0.476800 0.697100 0.470400 0.703400 C 0.466800 0.707000 0.431800 0.708300 0.338500 0.708300 C 0.220300 0.708300 0.210600 0.707800 0.198500 0.700400 Z M 0.356700 0.209500 C 0.325100 0.199900 0.290800 0.168000 0.283400 0.141200 C 0.272100 0.100700 0.283300 0.053600 0.310200 0.028500 C 0.348400 -0.007400 0.410200 -0.009600 0.453300 0.023200 C 0.485900 0.048000 0.498600 0.110200 0.479400 0.150000 C 0.457900 0.194500 0.399800 0.222600 0.356700 0.209500 Z"/>
</svg>
