<svg xmlns="http://www.w3.org/2000/svg" viewBox="0 0 1 1">
  <path fill="black" fill-rule="evenodd" d="M 0.332700 0.998800 C 0.322600 0.994900 0.318500 0.988300 0.318500 0.976500 C 0.318500 0.962600 0.324100 0.955400 0.350400 0.935600 C 0.369700 0.921200 0.368800 0.928800 0.362700 0.836100 C 0.360500 0.802500 0.356400 0.733200 0.353700 0.682100 C 0.349000 0.594400 0.349000 0.588900 0.353600 0.583800 C 0.358200 0.578700 0.358200 0.578400 0.353000 0.577000 C 0.337800 0.573000 0.298000 0.504300 0.288900 0.466400 C 0.277400 0.418100 0.287100 0.365500 0.319900 0.297700 C 0.342600 0.250900 0.360500 0.230200 0.390500 0.215900 C 0.410900 0.206300 0.433700 0.200100 0.449200 0.200100 C 0.460100 0.200100 0.459800 0.196400 0.448400 0.188500 C 0.431100 0.176700 0.420200 0.164700 0.411200 0.147600 C 0.402800 0.131600 0.402200 0.128700 0.402200 0.100800 C 0.402200 0.074100 0.403000 0.069300 0.409900 0.055300 C 0.419900 0.034900 0.438100 0.016600 0.457600 0.007400 C 0.471200 0.000900 0.476800 0.000000 0.501600 0.000000 C 0.526800 0.000000 0.531600 0.000900 0.544200 0.007500 C 0.561800 0.016800 0.583700 0.039700 0.591900 0.057600 C 0.597000 0.068600 0.598100 0.076100 0.598100 0.100800 C 0.598100 0.127900 0.597400 0.132000 0.590100 0.146200 C 0.581300 0.163400 0.566300 0.180300 0.551800 0.189300 C 0.546700 0.192500 0.543300 0.195900 0.544300 0.196900 C 0.545300 0.197900 0.555500 0.200200 0.567100 0.202000 C 0.589800 0.205500 0.618800 0.217600 0.635100 0.230500 C 0.658000 0.248400 0.690400 0.307700 0.706200 0.360500 C 0.716300 0.394400 0.718700 0.440200 0.711800 0.467000 C 0.702100 0.504400 0.660400 0.577700 0.648700 0.577700 C 0.644500 0.577700 0.644500 0.578200 0.648500 0.582700 C 0.653200 0.588000 0.652400 0.612000 0.640700 0.823300 C 0.634600 0.932800 0.633100 0.920500 0.654800 0.936500 C 0.665000 0.943900 0.675800 0.953300 0.679000 0.957300 C 0.686900 0.967300 0.686600 0.984500 0.678500 0.992100 C 0.672700 0.997500 0.668700 0.997900 0.616200 0.997900 C 0.561300 0.997900 0.559900 0.997700 0.552300 0.991200 C 0.544900 0.984800 0.544400 0.982800 0.542500 0.950700 C 0.539400 0.900900 0.506000 0.659200 0.501500 0.654800 C 0.500800 0.654000 0.500200 0.654400 0.500200 0.655500 C 0.500200 0.656700 0.496400 0.684000 0.491800 0.716300 C 0.475700 0.828400 0.463300 0.934100 0.463300 0.958700 C 0.463300 0.980700 0.462500 0.984200 0.456400 0.991300 L 0.449600 0.999300 L 0.393300 0.999900 C 0.362300 1.000200 0.335000 0.999700 0.332700 0.998800 Z M 0.387100 0.432200 L 0.386200 0.377600 L 0.381000 0.387600 C 0.371800 0.405300 0.367000 0.428600 0.369900 0.442100 C 0.373300 0.457600 0.383900 0.486900 0.386300 0.486900 C 0.387200 0.486900 0.387600 0.462300 0.387100 0.432200 Z M 0.626400 0.461100 C 0.630400 0.448500 0.633600 0.435100 0.633600 0.431100 C 0.633600 0.422900 0.620300 0.381700 0.616400 0.377700 C 0.614700 0.376000 0.613700 0.396400 0.613700 0.431100 C 0.613700 0.466600 0.614800 0.486600 0.616500 0.485500 C 0.618000 0.484600 0.622500 0.473600 0.626400 0.461100 Z"/>
</svg>
