<svg xmlns="http://www.w3.org/2000/svg" viewBox="0 0 1 1">
  <path fill="black" fill-rule="evenodd" d="M 0.214800 0.993700 C 0.207600 0.986500 0.203500 0.974500 0.201100 0.953900 C 0.199400 0.939600 0.200500 0.934500 0.222300 0.854800 C 0.229500 0.828800 0.242100 0.823800 0.272600 0.835000 C 0.283100 0.838800 0.288200 0.842200 0.289200 0.845800 C 0.290500 0.850900 0.291700 0.850700 0.324000 0.838900 C 0.342400 0.832200 0.364700 0.825800 0.373500 0.824700 C 0.386900 0.823000 0.389800 0.821800 0.391600 0.816900 C 0.393500 0.811600 0.392600 0.810500 0.382600 0.806200 C 0.376500 0.803600 0.370800 0.800400 0.370000 0.799100 C 0.369200 0.797800 0.373600 0.781500 0.379700 0.762800 C 0.388300 0.736600 0.390300 0.727400 0.388500 0.722600 C 0.387300 0.719300 0.386200 0.708600 0.386200 0.699000 C 0.386200 0.681800 0.386100 0.681400 0.379200 0.680700 C 0.375300 0.680200 0.371900 0.678100 0.371500 0.675800 C 0.371000 0.673500 0.378300 0.651200 0.387600 0.626200 C 0.401500 0.588500 0.419400 0.526400 0.419400 0.515400 C 0.419400 0.511600 0.406600 0.512100 0.386300 0.516700 L 0.368700 0.520700 L 0.348900 0.545400 C 0.338000 0.559000 0.328100 0.571500 0.326800 0.573200 C 0.325500 0.575000 0.325800 0.582000 0.327700 0.590400 C 0.330700 0.603600 0.330500 0.605200 0.324600 0.616500 C 0.319400 0.626700 0.316300 0.629500 0.305700 0.633600 C 0.275500 0.645400 0.252700 0.639600 0.241300 0.617300 C 0.231200 0.597700 0.238000 0.571700 0.256400 0.559500 C 0.262300 0.555500 0.270100 0.546200 0.276800 0.534800 C 0.293200 0.507100 0.321000 0.468700 0.331100 0.459700 C 0.339600 0.452300 0.351900 0.447600 0.386800 0.438400 C 0.393500 0.436600 0.399000 0.433700 0.399000 0.431900 C 0.399000 0.428100 0.402100 0.427400 0.436000 0.423500 C 0.468700 0.419800 0.478000 0.418200 0.478000 0.416200 C 0.478000 0.415300 0.472600 0.411700 0.466000 0.408200 C 0.450900 0.400200 0.427500 0.376500 0.418600 0.360200 C 0.399600 0.325300 0.399800 0.272900 0.419000 0.244000 C 0.423400 0.237500 0.423500 0.236100 0.420200 0.229400 C 0.418100 0.225300 0.417100 0.220900 0.417900 0.219700 C 0.420200 0.215900 0.404800 0.204500 0.395100 0.202600 C 0.382700 0.200300 0.372400 0.202700 0.347600 0.213600 C 0.328800 0.221900 0.323800 0.223000 0.305900 0.223000 C 0.289900 0.223000 0.283200 0.221800 0.274900 0.217500 C 0.260700 0.210000 0.249100 0.199900 0.244500 0.191000 C 0.240100 0.182500 0.240800 0.182200 0.251600 0.187800 C 0.261300 0.192800 0.282600 0.193500 0.293100 0.189100 L 0.300700 0.185900 L 0.285800 0.180800 C 0.266600 0.174300 0.261400 0.170900 0.238200 0.149700 C 0.220100 0.133100 0.210400 0.119000 0.210300 0.109100 C 0.210100 0.101700 0.214100 0.104000 0.218900 0.114100 C 0.222800 0.122200 0.223700 0.122900 0.225900 0.119200 C 0.227500 0.116100 0.227000 0.109700 0.224200 0.098800 C 0.218900 0.078500 0.216400 0.048000 0.219600 0.042200 C 0.221800 0.038400 0.223200 0.039600 0.230000 0.050200 C 0.238500 0.063300 0.249700 0.074700 0.263100 0.084000 C 0.272700 0.090500 0.272700 0.090400 0.267600 0.078200 C 0.263200 0.067700 0.262600 0.046300 0.266300 0.033100 C 0.269300 0.022200 0.283000 0.000000 0.286700 0.000000 C 0.288100 0.000000 0.289300 0.006400 0.289300 0.014800 C 0.289300 0.033700 0.298400 0.052800 0.313300 0.065000 C 0.331700 0.080100 0.338200 0.081700 0.379100 0.081000 C 0.411600 0.080400 0.416800 0.080900 0.427200 0.085700 C 0.455500 0.098900 0.471200 0.123100 0.471300 0.153900 C 0.471300 0.165200 0.469700 0.175800 0.467200 0.181700 C 0.464900 0.186900 0.464000 0.191800 0.465200 0.192500 C 0.466300 0.193300 0.473600 0.191000 0.481200 0.187500 C 0.501000 0.178400 0.521500 0.175200 0.549500 0.176800 C 0.577500 0.178400 0.598000 0.184700 0.617800 0.197900 C 0.638900 0.211800 0.652900 0.238800 0.647600 0.255300 C 0.645900 0.260800 0.645700 0.260700 0.639800 0.253500 C 0.632800 0.244900 0.632500 0.245400 0.637400 0.258900 C 0.639400 0.264500 0.641100 0.277300 0.641200 0.287200 C 0.641300 0.297100 0.643200 0.310700 0.645500 0.317400 C 0.650400 0.331900 0.649200 0.347000 0.641300 0.368000 C 0.626600 0.407300 0.602400 0.426200 0.561500 0.430300 C 0.553400 0.431200 0.546200 0.432700 0.545600 0.433800 C 0.544900 0.434900 0.548700 0.438400 0.553900 0.441600 C 0.559200 0.444800 0.570400 0.453300 0.578800 0.460500 C 0.587200 0.467700 0.599600 0.477400 0.606200 0.482100 C 0.612900 0.486800 0.618400 0.492100 0.618400 0.493800 C 0.618400 0.496700 0.634100 0.510200 0.637600 0.510200 C 0.638500 0.510200 0.649000 0.504400 0.660700 0.497300 C 0.680000 0.485600 0.682100 0.483600 0.682100 0.476600 C 0.682100 0.445700 0.720800 0.426600 0.747600 0.444300 C 0.753200 0.448000 0.759800 0.455100 0.762100 0.460000 C 0.767300 0.471000 0.767600 0.490200 0.762600 0.499700 C 0.757300 0.510100 0.742500 0.522200 0.732700 0.524300 C 0.727300 0.525500 0.717400 0.532600 0.705600 0.543600 C 0.679200 0.568300 0.653900 0.584500 0.639500 0.586200 C 0.629200 0.587300 0.624900 0.585900 0.601300 0.573800 C 0.582600 0.564300 0.574100 0.561100 0.572800 0.563200 C 0.571800 0.564800 0.568800 0.578600 0.566300 0.593700 C 0.563700 0.608800 0.560600 0.623100 0.559400 0.625400 C 0.557700 0.628600 0.558200 0.629400 0.561600 0.628700 C 0.564100 0.628200 0.575100 0.625800 0.586200 0.623500 C 0.604500 0.619600 0.606700 0.619600 0.609300 0.623200 C 0.611900 0.626700 0.615600 0.626800 0.639700 0.624300 C 0.670800 0.621100 0.685200 0.623400 0.698900 0.633900 C 0.718800 0.649100 0.719400 0.660800 0.706800 0.790200 C 0.705000 0.808800 0.704400 0.824000 0.705600 0.824000 C 0.706700 0.824000 0.707600 0.823000 0.707600 0.821700 C 0.707600 0.820500 0.711100 0.818100 0.715300 0.816300 C 0.721700 0.813700 0.723900 0.813800 0.729500 0.817500 C 0.734800 0.821000 0.737600 0.821300 0.743900 0.819100 C 0.769300 0.810200 0.799500 0.825400 0.799500 0.846900 C 0.799500 0.857100 0.789500 0.871600 0.775300 0.882400 C 0.758300 0.895200 0.753300 0.897400 0.711300 0.910800 C 0.650500 0.930100 0.633200 0.923300 0.634000 0.880600 C 0.634500 0.852800 0.636100 0.848400 0.646400 0.846900 C 0.653600 0.845800 0.654300 0.845200 0.650000 0.844000 C 0.645200 0.842700 0.644100 0.838400 0.638700 0.799400 C 0.635400 0.775800 0.632900 0.745800 0.633100 0.732800 L 0.633400 0.709200 L 0.627000 0.710800 C 0.623400 0.711600 0.615800 0.713800 0.609900 0.715500 L 0.599200 0.718700 L 0.596500 0.735600 C 0.594900 0.744900 0.593100 0.753100 0.592400 0.753900 C 0.591700 0.754600 0.575100 0.758300 0.555600 0.762200 L 0.520100 0.769300 L 0.509600 0.798500 C 0.495800 0.836400 0.495200 0.837300 0.484200 0.836300 C 0.475300 0.835500 0.475200 0.835500 0.466400 0.855800 C 0.450800 0.891500 0.441900 0.897400 0.398100 0.900600 C 0.381000 0.901900 0.350900 0.904300 0.331200 0.905900 L 0.295300 0.908900 L 0.295500 0.919400 C 0.295600 0.927800 0.294600 0.930300 0.290000 0.932300 C 0.286900 0.933700 0.284000 0.937100 0.283600 0.940000 C 0.283200 0.942800 0.280300 0.946300 0.277200 0.947700 C 0.273200 0.949400 0.271400 0.952400 0.271400 0.957300 C 0.271400 0.968700 0.265400 0.980100 0.253900 0.990400 C 0.245100 0.998400 0.241500 1.000000 0.232200 1.000000 C 0.223800 1.000000 0.219600 0.998500 0.214800 0.993700 Z"/>
</svg>
