<svg xmlns="http://www.w3.org/2000/svg" viewBox="0 0 1 1">
  <path fill="black" fill-rule="evenodd" d="M 0.084900 0.997200 C 0.072700 0.990400 0.011700 0.935100 0.004500 0.924400 C -0.005500 0.909400 0.001900 0.885700 0.020100 0.874800 C 0.024700 0.872000 0.058900 0.840900 0.096200 0.805800 C 0.158100 0.747400 0.164600 0.740500 0.171000 0.726000 C 0.174900 0.717300 0.186800 0.691900 0.197500 0.669600 C 0.214500 0.634100 0.216600 0.628200 0.214600 0.621300 C 0.211900 0.612000 0.224200 0.407300 0.228500 0.389800 C 0.236100 0.359100 0.252300 0.338000 0.277400 0.326100 C 0.295200 0.317600 0.316200 0.316500 0.335200 0.322900 C 0.360500 0.331500 0.385000 0.363400 0.389000 0.393000 C 0.390700 0.405600 0.391800 0.407100 0.409400 0.422100 L 0.428000 0.438000 L 0.476800 0.449700 C 0.503600 0.456100 0.535700 0.462200 0.548100 0.463100 C 0.570400 0.464900 0.570800 0.465100 0.580400 0.475400 C 0.588500 0.484100 0.590200 0.487600 0.590200 0.496700 C 0.590300 0.508700 0.585300 0.501900 0.649700 0.577400 C 0.667800 0.598600 0.692100 0.627200 0.703800 0.640900 L 0.725000 0.665800 L 0.743700 0.665800 L 0.762400 0.665800 L 0.762400 0.576400 L 0.762400 0.486900 L 0.768500 0.481100 C 0.773800 0.476100 0.777300 0.475300 0.792400 0.475500 C 0.861400 0.476100 0.935800 0.523400 0.966300 0.586100 C 0.983100 0.620300 0.986500 0.635800 0.986300 0.676000 C 0.986200 0.708700 0.985800 0.711400 0.976700 0.738000 C 0.963000 0.778200 0.946600 0.800800 0.923100 0.812000 C 0.918300 0.814300 0.914300 0.817200 0.914300 0.818300 C 0.914300 0.819500 0.917100 0.826000 0.920500 0.832800 C 0.925900 0.843300 0.928100 0.845300 0.936400 0.846800 C 0.983000 0.855400 1.011700 0.904500 0.995400 0.947600 C 0.991700 0.957600 0.985800 0.966300 0.977200 0.974800 C 0.934800 1.016500 0.864200 0.999100 0.847800 0.943100 C 0.843900 0.929700 0.839600 0.927200 0.821900 0.928100 C 0.817700 0.928300 0.808400 0.928600 0.801200 0.928800 L 0.788000 0.929200 L 0.784100 0.942700 C 0.779200 0.959600 0.768300 0.974700 0.754300 0.984300 C 0.739600 0.994300 0.729000 0.997600 0.711400 0.997600 C 0.689300 0.997600 0.671800 0.990000 0.656300 0.973600 C 0.642200 0.958800 0.639200 0.952800 0.635400 0.932300 C 0.628700 0.896100 0.656500 0.855000 0.693100 0.847100 C 0.699900 0.845600 0.701500 0.843800 0.703800 0.834300 C 0.707700 0.818800 0.707600 0.818400 0.698400 0.816400 C 0.672200 0.810700 0.646900 0.788800 0.638600 0.764600 C 0.636900 0.759700 0.634400 0.738100 0.633100 0.716500 L 0.630600 0.677200 L 0.637100 0.671500 C 0.642500 0.666800 0.646600 0.665800 0.661400 0.665800 L 0.679200 0.665800 L 0.673700 0.658900 C 0.670700 0.655100 0.645500 0.625600 0.617600 0.593300 C 0.569900 0.538100 0.566400 0.534600 0.560600 0.536800 C 0.557200 0.538100 0.550900 0.539200 0.546700 0.539200 C 0.532500 0.539200 0.394000 0.511400 0.386300 0.507100 C 0.382200 0.504700 0.366200 0.493800 0.350900 0.482800 L 0.323000 0.462900 L 0.343900 0.483400 C 0.355700 0.495000 0.369500 0.506000 0.375500 0.508600 L 0.386300 0.513200 L 0.384200 0.567700 L 0.382100 0.622300 L 0.435900 0.701700 C 0.465500 0.745300 0.501700 0.798700 0.516400 0.820300 C 0.531100 0.841900 0.545900 0.863800 0.549300 0.869100 L 0.555600 0.878500 L 0.572400 0.877000 C 0.592600 0.875100 0.605800 0.880000 0.613200 0.892300 C 0.622100 0.906800 0.617800 0.928400 0.604400 0.936800 C 0.517300 0.991800 0.510600 0.994800 0.494000 0.986200 C 0.484200 0.981200 0.477700 0.971500 0.471700 0.953200 C 0.468000 0.942000 0.455200 0.921700 0.422900 0.876000 C 0.368200 0.798400 0.306500 0.718000 0.303900 0.720700 C 0.300800 0.724000 0.267700 0.779200 0.257700 0.797900 C 0.252500 0.807500 0.242900 0.820000 0.235200 0.827000 C 0.227800 0.833800 0.204800 0.855300 0.184000 0.874800 C 0.163300 0.894300 0.140500 0.915400 0.133400 0.921800 L 0.120600 0.933400 L 0.125300 0.945600 C 0.131200 0.961100 0.131200 0.974500 0.125300 0.984600 C 0.117400 0.997800 0.097300 1.004100 0.084900 0.997200 Z M 0.847200 0.902100 C 0.852700 0.883300 0.863500 0.868000 0.878300 0.858000 C 0.884900 0.853500 0.890600 0.849600 0.891100 0.849300 C 0.891500 0.849000 0.888900 0.842900 0.885300 0.835800 L 0.878800 0.822900 L 0.810700 0.822900 L 0.742600 0.822900 L 0.738400 0.834900 C 0.734600 0.846000 0.734600 0.847100 0.738500 0.849400 C 0.766200 0.866200 0.777700 0.879300 0.784300 0.900900 C 0.786200 0.907300 0.789200 0.913400 0.790900 0.914500 C 0.792600 0.915600 0.805000 0.916500 0.818500 0.916500 L 0.843000 0.916600 L 0.847200 0.902100 Z M 0.303700 0.297100 C 0.278900 0.288500 0.255700 0.265100 0.245700 0.238600 C 0.241200 0.226700 0.240400 0.220100 0.241200 0.203700 C 0.242500 0.177900 0.250700 0.159200 0.268400 0.141500 C 0.315400 0.094400 0.391600 0.108200 0.420000 0.168900 C 0.426000 0.181600 0.426800 0.186500 0.426800 0.208700 C 0.426800 0.231200 0.426000 0.235600 0.419800 0.248300 C 0.411400 0.265400 0.389800 0.286600 0.373100 0.294000 C 0.356800 0.301200 0.320300 0.302900 0.303700 0.297100 Z"/>
</svg>
