<svg xmlns="http://www.w3.org/2000/svg" viewBox="0 0 1 1">
  <path fill="black" fill-rule="evenodd" d="M 0.351800 0.995400 C 0.345700 0.989700 0.345100 0.976300 0.350600 0.968100 C 0.352600 0.965000 0.359200 0.957300 0.365200 0.951000 L 0.376000 0.939700 L 0.378700 0.842900 C 0.380100 0.789600 0.382100 0.693500 0.383100 0.629300 C 0.384800 0.519600 0.385200 0.512300 0.389200 0.507800 L 0.393500 0.503000 L 0.384400 0.507500 C 0.363100 0.518200 0.344800 0.515800 0.329500 0.500500 C 0.313100 0.484000 0.311800 0.461900 0.325500 0.434500 C 0.332200 0.421300 0.349900 0.396500 0.364500 0.380000 L 0.374200 0.369000 L 0.374200 0.349800 C 0.374200 0.331600 0.374500 0.330200 0.381200 0.322600 C 0.393800 0.308300 0.414300 0.307400 0.427400 0.320600 C 0.434400 0.327600 0.434900 0.329500 0.436800 0.355800 L 0.438100 0.375500 L 0.415200 0.400200 C 0.402600 0.413800 0.389900 0.425800 0.386900 0.426800 C 0.376700 0.430200 0.377800 0.442100 0.388300 0.442100 C 0.395800 0.442100 0.399900 0.438600 0.422300 0.413200 C 0.452700 0.378700 0.452500 0.379100 0.450600 0.360400 L 0.449100 0.344800 L 0.458300 0.343300 C 0.463400 0.342500 0.467500 0.341100 0.467500 0.340100 C 0.467400 0.339200 0.463200 0.335900 0.458000 0.332800 C 0.444500 0.324500 0.432000 0.307600 0.426600 0.290200 C 0.416900 0.259000 0.423900 0.230400 0.446800 0.207500 C 0.475000 0.179300 0.524400 0.179800 0.553000 0.208400 C 0.571100 0.226600 0.575600 0.238200 0.575700 0.265600 C 0.575700 0.284200 0.574800 0.290300 0.570800 0.299000 C 0.564800 0.311900 0.550300 0.328100 0.539300 0.334000 C 0.529600 0.339200 0.530100 0.342600 0.540600 0.344100 L 0.548400 0.345300 L 0.557600 0.381700 C 0.562600 0.401800 0.568500 0.421400 0.570600 0.425300 C 0.577800 0.438800 0.610100 0.447900 0.617800 0.438700 C 0.622700 0.432800 0.618800 0.428400 0.608700 0.428400 C 0.598300 0.428400 0.586300 0.424100 0.581800 0.418700 C 0.578300 0.414400 0.565300 0.363700 0.563800 0.348000 C 0.561200 0.321000 0.583600 0.303700 0.607400 0.314200 C 0.620600 0.320100 0.624800 0.328400 0.626400 0.351900 L 0.627700 0.370300 L 0.641100 0.386300 C 0.670900 0.421600 0.683900 0.446400 0.683900 0.468400 C 0.683900 0.503100 0.650000 0.524300 0.619300 0.508800 C 0.613300 0.505700 0.613000 0.505800 0.614100 0.509700 C 0.614700 0.511900 0.615900 0.555800 0.616600 0.607200 C 0.617400 0.658500 0.619000 0.754300 0.620300 0.820100 L 0.622700 0.939700 L 0.634800 0.952200 C 0.641500 0.959100 0.648100 0.966900 0.649500 0.969700 C 0.653500 0.977700 0.652500 0.990300 0.647400 0.995400 C 0.643200 0.999700 0.639800 1.000000 0.597500 1.000000 C 0.553000 1.000000 0.551900 0.999900 0.545800 0.994600 C 0.539800 0.989500 0.539400 0.987900 0.538000 0.963300 C 0.535600 0.923400 0.506400 0.721500 0.501800 0.713300 C 0.500000 0.710100 0.499600 0.710100 0.498500 0.713100 C 0.493700 0.726000 0.460700 0.950600 0.460700 0.969900 C 0.460700 0.985400 0.460200 0.987200 0.454000 0.993300 L 0.447400 1.000000 L 0.402100 1.000000 C 0.359700 1.000000 0.356500 0.999700 0.351800 0.995400 Z M 0.433400 0.196500 C 0.433400 0.195500 0.420600 0.185200 0.405000 0.173500 C 0.389400 0.161900 0.366400 0.142500 0.353800 0.130400 C 0.330900 0.108500 0.330800 0.108400 0.330900 0.097400 C 0.330900 0.087900 0.332000 0.085300 0.338600 0.078600 C 0.344900 0.072400 0.348200 0.070900 0.355500 0.070900 C 0.365300 0.070900 0.366200 0.071400 0.399700 0.099600 C 0.427000 0.122500 0.458100 0.139300 0.473100 0.139200 C 0.476400 0.139100 0.474800 0.137500 0.467500 0.133300 C 0.441700 0.118600 0.430100 0.099000 0.430100 0.069700 C 0.430000 0.040100 0.442100 0.020200 0.468000 0.007200 C 0.502200 -0.009800 0.543800 0.004400 0.560000 0.038600 C 0.573700 0.067500 0.568500 0.097700 0.546000 0.120200 C 0.539500 0.126800 0.531400 0.132800 0.528100 0.133600 C 0.524900 0.134500 0.522200 0.136200 0.522200 0.137500 C 0.522200 0.143900 0.557100 0.130800 0.577500 0.116700 C 0.582900 0.113000 0.597800 0.101200 0.610700 0.090400 C 0.631500 0.072900 0.634900 0.070900 0.643200 0.070900 C 0.650700 0.070900 0.653900 0.072400 0.660200 0.078600 C 0.666600 0.085100 0.667900 0.088000 0.667900 0.096300 C 0.667900 0.101800 0.666300 0.108600 0.664300 0.111500 C 0.658000 0.120400 0.608400 0.163900 0.587700 0.178500 C 0.576700 0.186300 0.567700 0.193900 0.567700 0.195500 C 0.567700 0.199700 0.567000 0.199400 0.552800 0.189400 C 0.535700 0.177400 0.520300 0.172500 0.499400 0.172300 C 0.478800 0.172200 0.458800 0.179000 0.445100 0.190700 C 0.435900 0.198600 0.433400 0.199800 0.433400 0.196500 Z"/>
</svg>
