<svg xmlns="http://www.w3.org/2000/svg" viewBox="0 0 1 1">
  <path fill="black" fill-rule="evenodd" d="M 0.234700 0.994700 C 0.218400 0.984900 0.213100 0.962400 0.219500 0.931100 C 0.221000 0.923600 0.224200 0.905600 0.226700 0.890900 C 0.230900 0.865900 0.231600 0.864000 0.239400 0.860600 C 0.248200 0.856700 0.261400 0.839600 0.261400 0.832000 C 0.261400 0.829500 0.263000 0.826200 0.264900 0.824700 C 0.269500 0.821200 0.353600 0.792700 0.356300 0.793800 C 0.357400 0.794300 0.353600 0.819800 0.347800 0.850500 C 0.342100 0.881200 0.337900 0.907200 0.338600 0.908300 C 0.339300 0.909500 0.347400 0.913700 0.356600 0.917900 C 0.365800 0.922000 0.377600 0.930200 0.383000 0.936100 C 0.391600 0.945600 0.392800 0.948700 0.392800 0.961900 C 0.392800 0.972900 0.391200 0.978900 0.386900 0.984300 C 0.375400 0.999000 0.370200 1.000000 0.304200 1.000000 C 0.249500 1.000000 0.242400 0.999500 0.234700 0.994700 Z M 0.656400 0.994600 C 0.606500 0.992900 0.602900 0.991600 0.595000 0.972900 C 0.589600 0.960100 0.590300 0.950400 0.597700 0.934300 C 0.601200 0.926700 0.605600 0.914700 0.607400 0.907800 C 0.609100 0.900900 0.614200 0.885900 0.618500 0.874600 L 0.626500 0.853900 L 0.632900 0.864200 C 0.644300 0.882600 0.665200 0.887800 0.685800 0.877200 C 0.698100 0.871000 0.704000 0.863000 0.708300 0.847100 C 0.711000 0.837000 0.713000 0.835100 0.727400 0.828900 C 0.736200 0.825000 0.743800 0.822800 0.744300 0.824000 C 0.744700 0.825200 0.736300 0.847600 0.725700 0.873700 L 0.706200 0.921400 L 0.722500 0.935500 C 0.741800 0.952300 0.747000 0.964000 0.742000 0.979300 C 0.738200 0.990800 0.725900 0.997600 0.710700 0.996700 C 0.705700 0.996300 0.681200 0.995400 0.656400 0.994600 Z M 0.655400 0.864600 C 0.645800 0.859400 0.613500 0.789200 0.613500 0.773700 C 0.613500 0.754700 0.633800 0.737300 0.656100 0.737300 C 0.661300 0.737300 0.683000 0.731000 0.704400 0.723400 C 0.768900 0.700300 0.768200 0.700600 0.764000 0.698000 C 0.761900 0.696700 0.738200 0.685300 0.711300 0.672700 C 0.655800 0.646700 0.646300 0.640600 0.639000 0.626100 C 0.633200 0.614600 0.630700 0.579700 0.629800 0.499100 C 0.629500 0.473300 0.628400 0.452500 0.627400 0.452900 C 0.626300 0.453400 0.608500 0.468200 0.587900 0.485900 C 0.558900 0.510700 0.548800 0.521200 0.543500 0.531900 C 0.537900 0.543300 0.534400 0.546700 0.523700 0.551100 C 0.504700 0.559000 0.492500 0.555900 0.476600 0.539000 C 0.469700 0.531700 0.452100 0.517700 0.437500 0.508100 C 0.422900 0.498500 0.403700 0.485100 0.394800 0.478400 C 0.386000 0.471800 0.378300 0.466300 0.377700 0.466300 C 0.377100 0.466300 0.376400 0.489000 0.376200 0.516700 C 0.375900 0.544400 0.375000 0.568900 0.374200 0.571100 C 0.372500 0.575500 0.375900 0.579700 0.424300 0.632700 C 0.452000 0.663100 0.458000 0.671200 0.461600 0.683700 C 0.467000 0.702200 0.463400 0.720400 0.451000 0.737500 C 0.440400 0.752100 0.435100 0.754400 0.335600 0.787700 L 0.254700 0.814800 L 0.251000 0.826000 C 0.245700 0.841900 0.235700 0.850400 0.222100 0.850400 C 0.205900 0.850400 0.199800 0.842200 0.182000 0.796500 C 0.167800 0.760200 0.166600 0.755400 0.169100 0.746000 C 0.174000 0.727800 0.189100 0.717800 0.211600 0.717800 C 0.226700 0.717800 0.328500 0.691100 0.328500 0.687100 C 0.328500 0.685000 0.246800 0.645100 0.242400 0.645100 C 0.235700 0.645100 0.215800 0.626900 0.211000 0.616300 C 0.206100 0.605600 0.205700 0.597000 0.205600 0.511700 C 0.205600 0.453100 0.204500 0.418800 0.202800 0.418800 C 0.201300 0.418800 0.198200 0.421600 0.196000 0.425100 C 0.187200 0.438600 0.165800 0.507700 0.162300 0.534000 C 0.161000 0.543600 0.158000 0.549900 0.151500 0.556800 C 0.126100 0.583700 0.082600 0.568000 0.082600 0.532000 C 0.082600 0.518600 0.095200 0.467600 0.110900 0.417400 C 0.121300 0.384300 0.124600 0.377600 0.148200 0.341900 C 0.185800 0.285200 0.203700 0.263400 0.223000 0.250900 C 0.272600 0.218900 0.316100 0.220100 0.350700 0.254600 C 0.363500 0.267300 0.377200 0.292700 0.380300 0.309400 C 0.381300 0.315000 0.390500 0.336600 0.400700 0.357300 L 0.419300 0.395000 L 0.452800 0.420900 C 0.471300 0.435100 0.491400 0.450400 0.497600 0.454800 L 0.508800 0.462900 L 0.539200 0.436400 C 0.567300 0.412100 0.571300 0.407300 0.591000 0.374600 C 0.636300 0.299300 0.651100 0.282300 0.680400 0.272200 C 0.706000 0.263300 0.737000 0.268600 0.757300 0.285300 C 0.770100 0.295800 0.788400 0.323300 0.791000 0.335800 C 0.792000 0.340700 0.800700 0.361100 0.810300 0.381100 L 0.827800 0.417400 L 0.871400 0.459600 C 0.907600 0.494800 0.915200 0.503600 0.916800 0.512100 C 0.920700 0.532500 0.904500 0.552900 0.884400 0.552900 C 0.872800 0.552900 0.865600 0.547800 0.815300 0.503200 C 0.804100 0.493300 0.794400 0.485600 0.793900 0.486200 C 0.793300 0.486800 0.792500 0.509600 0.792000 0.536900 L 0.791200 0.586500 L 0.833400 0.629100 C 0.858200 0.654200 0.878100 0.676800 0.881800 0.684200 C 0.894100 0.708500 0.887100 0.742800 0.866800 0.758100 C 0.862000 0.761800 0.822200 0.779100 0.778400 0.796700 L 0.698800 0.828600 L 0.697100 0.838600 C 0.693200 0.862900 0.674100 0.874800 0.655400 0.864600 Z M 0.666100 0.693600 C 0.665600 0.675400 0.665600 0.659900 0.666100 0.659100 C 0.666600 0.658300 0.683900 0.666500 0.704600 0.677100 C 0.725200 0.687800 0.741100 0.697500 0.740000 0.698600 C 0.738800 0.699700 0.724000 0.705600 0.707100 0.711700 C 0.690200 0.717700 0.674300 0.723500 0.671700 0.724600 C 0.667400 0.726400 0.666900 0.723300 0.666100 0.693600 Z M 0.246400 0.701900 C 0.245500 0.700900 0.244700 0.689100 0.244700 0.675700 L 0.244700 0.651200 L 0.276100 0.668100 C 0.293400 0.677300 0.307900 0.685200 0.308400 0.685600 C 0.308800 0.686000 0.297500 0.689200 0.283200 0.692700 C 0.268900 0.696200 0.255200 0.700000 0.252700 0.701300 C 0.250200 0.702600 0.247400 0.702800 0.246400 0.701900 Z M 0.553100 0.264000 C 0.548300 0.261900 0.542300 0.257200 0.539900 0.253700 C 0.535500 0.247500 0.535700 0.247100 0.543500 0.243800 C 0.554800 0.239100 0.560500 0.226500 0.563100 0.200300 C 0.564900 0.182400 0.567000 0.175600 0.573400 0.166600 C 0.583400 0.152400 0.599200 0.144000 0.616500 0.143700 L 0.629700 0.143500 L 0.631400 0.131400 C 0.635600 0.100200 0.664400 0.066200 0.695100 0.055800 C 0.750800 0.037000 0.806200 0.065100 0.823500 0.120800 C 0.838800 0.170200 0.816000 0.219800 0.767800 0.242200 C 0.754500 0.248300 0.747800 0.249600 0.728000 0.249700 C 0.706700 0.249700 0.702300 0.248800 0.685500 0.240500 C 0.666300 0.231100 0.650300 0.215600 0.642000 0.198700 C 0.639600 0.193700 0.636600 0.189700 0.635400 0.189700 C 0.631100 0.189700 0.624700 0.202800 0.621900 0.217400 C 0.620400 0.225600 0.616500 0.236500 0.613300 0.241700 C 0.601700 0.260500 0.570700 0.272000 0.553100 0.264000 Z M 0.283500 0.200000 C 0.263300 0.191500 0.252700 0.183900 0.240600 0.169000 C 0.223100 0.147700 0.218100 0.133100 0.218100 0.103000 C 0.218100 0.080100 0.219100 0.074300 0.225600 0.060500 C 0.242600 0.024300 0.273800 0.002500 0.312000 0.000200 C 0.351200 -0.002100 0.381600 0.012500 0.403100 0.044000 C 0.417500 0.065000 0.421600 0.078600 0.421800 0.105800 C 0.421900 0.123600 0.420700 0.129500 0.413300 0.144900 C 0.402900 0.166900 0.383100 0.187100 0.362000 0.197300 C 0.339600 0.208000 0.305300 0.209200 0.283500 0.200000 Z"/>
</svg>
