<svg xmlns="http://www.w3.org/2000/svg" viewBox="0 0 1000 1000" width="1000" height="1000"><path fill-rule="evenodd" fill="black" d=" M32.75,998.79 C29.24,995.28 36.11,989.45 57.00,978.19 C65.66,973.53 90.84,963.13 100.36,960.29 C104.62,959.02 105.48,958.23 105.97,955.12 C107.45,945.90 116.87,848.37 120.34,806.51 L121.14,796.82 L117.45,794.92 C111.80,791.99 110.02,787.38 110.42,776.71 L110.77,767.55 L145.17,767.55 L179.58,767.55 L179.94,775.23 C180.19,780.67 179.55,785.24 177.72,790.92 C176.31,795.32 175.46,799.74 175.84,800.74 C176.42,802.24 179.35,802.55 193.11,802.55 C202.23,802.55 209.98,802.07 210.34,801.49 C210.70,800.91 211.35,776.41 211.79,747.04 L212.59,693.64 L207.60,691.10 C199.72,687.08 197.97,683.08 197.99,669.08 C198.00,662.55 198.43,656.54 198.95,655.71 C199.70,654.54 210.40,654.29 248.47,654.53 L297.03,654.84 L297.35,667.89 C297.71,683.28 296.00,687.52 288.08,690.84 L283.38,692.80 L283.68,727.80 L283.98,762.80 L293.47,762.80 L302.96,762.80 L303.56,745.60 L304.15,728.40 L324.32,728.40 L344.49,728.40 L345.08,745.60 L345.68,762.80 L356.35,762.80 L367.03,762.80 L367.62,745.60 L368.22,728.40 L389.24,728.07 L410.27,727.75 L410.60,745.28 L410.93,762.80 L421.61,762.80 L432.28,762.80 L433.03,713.81 C433.44,686.87 434.06,664.53 434.41,664.19 C434.75,663.84 439.14,663.30 444.15,662.99 C455.92,662.28 456.92,663.06 456.40,672.56 L456.01,679.75 L463.12,679.75 L470.22,679.75 L470.26,672.63 C470.28,668.72 470.64,664.98 471.05,664.33 C471.50,663.61 475.72,663.38 481.70,663.74 L491.60,664.33 L491.96,672.34 L492.31,680.35 L498.78,680.35 L505.25,680.35 L505.25,672.17 C505.25,662.41 505.41,662.29 517.75,663.34 L526.60,664.08 L526.84,703.95 C527.04,738.18 527.30,755.51 527.70,761.96 C527.77,763.11 530.35,763.40 538.17,763.14 L548.55,762.80 L548.88,745.30 L549.21,727.80 L568.72,727.80 L588.23,727.80 L588.56,745.30 L588.89,762.80 L599.57,762.80 L610.25,762.80 L610.57,745.30 L610.90,727.80 L629.82,727.80 L648.74,727.80 L649.07,745.30 L649.40,762.80 L659.48,762.80 L669.57,762.80 L670.16,745.60 L670.75,728.40 L689.14,728.40 L707.53,728.40 L707.61,738.48 C707.65,744.03 707.78,751.92 707.90,756.03 L708.12,763.49 L717.32,763.15 L726.51,762.80 L727.43,729.62 C727.94,711.37 728.10,695.78 727.79,694.97 C727.48,694.17 725.07,692.41 722.44,691.06 C714.94,687.24 713.99,684.89 713.71,669.50 L713.46,656.02 L763.65,655.43 C794.61,655.07 814.27,655.27 814.96,655.97 C816.76,657.77 816.33,678.67 814.39,683.29 C813.18,686.20 810.79,688.43 805.93,691.17 L799.17,694.98 L800.04,747.88 C800.52,776.97 801.15,801.17 801.45,801.66 C801.75,802.15 808.12,802.55 815.60,802.55 C831.64,802.55 831.64,802.55 828.80,790.82 C825.91,778.86 825.27,769.87 827.21,768.26 C828.36,767.31 838.73,767.01 862.50,767.23 L896.17,767.55 L896.55,775.26 C897.07,785.93 895.23,791.45 890.17,794.44 C886.35,796.69 886.09,797.25 886.10,802.96 C886.12,810.11 888.06,832.73 893.85,893.31 C899.20,949.29 900.22,958.36 901.26,959.29 C901.72,959.71 904.24,960.72 906.85,961.54 C916.06,964.43 941.39,976.11 952.30,982.51 C966.04,990.55 970.76,994.60 969.68,997.42 C968.69,1000.00 968.80,1000.00 953.71,997.09 C858.00,978.65 713.12,964.87 584.44,961.97 L547.96,961.15 L547.95,930.20 C547.94,898.08 546.87,883.33 543.61,870.17 C537.11,844.00 520.53,822.19 498.93,811.38 C493.14,808.48 486.76,806.11 484.75,806.11 C482.74,806.11 476.52,808.32 470.93,811.03 C462.59,815.07 458.91,817.82 450.43,826.39 C441.55,835.37 439.27,838.56 434.21,849.06 C424.01,870.25 422.25,881.62 422.22,926.75 C422.21,947.48 421.75,960.48 421.03,960.92 C420.38,961.32 404.93,962.14 386.68,962.73 C293.99,965.75 212.13,972.70 120.85,985.30 C99.21,988.29 49.07,996.46 37.20,998.93 C35.24,999.34 33.24,999.28 32.75,998.79 Z M829.73,752.72 C825.56,752.20 825.01,751.76 825.14,749.16 C825.23,747.53 827.81,740.32 830.88,733.14 C839.55,712.88 846.73,693.39 853.34,672.17 C856.67,661.47 859.88,652.66 860.48,652.59 C861.08,652.52 862.23,654.60 863.05,657.21 C863.86,659.82 866.49,668.36 868.90,676.19 C873.74,691.97 881.59,712.79 890.74,734.14 C897.12,749.01 897.60,750.88 895.36,752.26 C893.78,753.24 837.06,753.63 829.73,752.72 Z M110.53,750.76 C110.12,749.69 110.36,747.42 111.06,745.72 C124.41,713.38 129.31,700.42 136.55,678.29 C141.29,663.79 145.70,652.08 146.34,652.29 C146.99,652.49 148.22,655.28 149.08,658.49 C153.97,676.83 167.85,715.32 178.29,739.52 C181.60,747.19 182.27,749.83 181.23,751.09 C180.14,752.40 173.21,752.72 145.58,752.72 C114.83,752.72 111.21,752.52 110.53,750.76 Z M313.54,711.94 C313.19,711.04 315.87,699.42 319.49,686.13 C327.62,656.30 336.30,619.95 337.41,611.07 C338.19,604.80 338.42,604.42 341.51,604.42 C343.32,604.42 345.30,603.75 345.92,602.93 C346.58,602.06 347.01,585.13 346.95,561.83 L346.86,522.22 L341.28,520.58 C331.36,517.69 331.36,517.58 340.50,490.26 C351.67,456.88 364.94,401.95 372.92,356.00 C373.38,353.37 374.16,351.85 374.76,352.44 C375.33,353.02 377.44,363.37 379.45,375.44 C387.02,420.89 399.49,479.83 406.21,501.96 C407.83,507.28 409.15,512.74 409.15,514.10 C409.15,517.11 405.33,519.73 399.35,520.82 L394.88,521.64 L395.19,562.73 L395.50,603.82 L406.67,604.17 C413.59,604.38 418.32,604.02 419.13,603.22 C420.02,602.32 420.60,576.41 421.01,518.64 L421.61,435.35 L455.12,435.04 L488.64,434.72 L488.64,376.25 L488.64,317.77 L482.84,315.32 C474.10,311.63 473.04,309.24 472.83,292.74 L472.66,278.75 L518.71,278.43 L564.76,278.12 L564.37,292.88 C564.01,306.52 563.76,307.86 561.14,310.64 C559.58,312.30 556.11,314.39 553.43,315.28 L548.55,316.91 L548.27,353.59 C548.11,373.76 548.38,412.69 548.86,440.10 L549.74,489.93 L561.01,489.93 L572.28,489.93 L572.60,463.68 L572.92,437.44 L568.30,436.70 C560.20,435.41 560.19,435.17 566.79,408.43 C573.32,382.00 579.46,350.25 584.06,319.08 C587.62,294.97 588.34,291.20 589.39,291.20 C589.83,291.20 591.14,296.94 592.30,303.96 C600.10,350.97 607.71,388.20 615.09,415.43 C617.42,424.05 619.15,432.06 618.93,433.22 C618.64,434.70 616.72,435.72 612.60,436.60 L606.69,437.85 L606.09,480.60 L605.50,523.35 L595.11,534.39 L584.71,545.43 L585.02,593.61 L585.33,641.79 L601.94,641.79 L618.55,641.79 L618.87,616.01 L619.19,590.24 L616.50,589.64 C615.02,589.31 611.94,588.90 609.65,588.72 C606.53,588.48 605.42,587.81 605.16,586.01 C604.97,584.70 608.24,575.09 612.42,564.66 C620.92,543.42 626.50,525.92 632.17,502.68 C634.28,494.03 636.40,486.96 636.88,486.96 C637.36,486.96 639.78,494.84 642.25,504.46 C647.44,524.66 657.46,555.70 664.45,573.26 C670.11,587.48 669.80,588.68 660.27,589.23 L654.14,589.59 L654.14,606.20 L654.14,622.81 L660.07,623.40 L666.01,623.99 L666.84,630.68 C667.90,639.24 670.85,650.83 680.36,683.84 C684.58,698.49 687.76,711.17 687.44,712.02 C686.60,714.19 545.62,714.31 543.45,712.14 C542.41,711.11 542.03,702.07 542.03,678.92 L542.03,647.13 L523.66,647.13 C502.52,647.13 504.95,648.87 502.93,632.30 C496.44,579.23 484.76,495.81 483.61,494.38 C481.70,492.00 477.99,492.66 476.90,495.56 C476.35,497.03 473.11,519.85 469.70,546.28 C466.29,572.71 461.82,606.08 459.76,620.43 L456.01,646.53 L437.49,646.86 L418.96,647.19 L417.91,680.08 L416.86,712.97 L365.52,713.28 C322.59,713.54 314.07,713.32 313.54,711.94 Z M723.47,636.95 C721.70,634.81 721.05,636.75 734.28,604.42 C743.12,582.79 756.03,545.37 760.25,529.15 C762.38,520.95 762.70,516.18 762.70,492.26 C762.70,466.27 762.83,464.67 765.08,462.64 C768.31,459.71 773.05,461.75 773.59,466.31 C773.80,468.08 774.77,469.94 775.75,470.45 C786.46,476.02 807.68,484.71 814.12,486.15 C823.16,488.17 823.78,488.51 822.85,490.94 C821.10,495.49 801.51,501.76 784.94,503.07 L774.56,503.90 L774.56,513.00 C774.56,518.33 775.57,526.01 777.00,531.52 C780.83,546.34 792.39,580.31 802.90,607.62 C808.20,621.38 812.53,633.39 812.53,634.31 C812.53,638.63 810.59,638.82 767.35,638.82 C730.25,638.82 724.83,638.59 723.47,636.95 Z M199.54,635.75 C199.15,634.72 201.28,627.64 204.29,620.03 C212.59,599.01 218.82,581.08 226.00,557.55 C238.65,516.10 238.61,516.34 239.39,481.62 L240.08,450.78 L243.42,450.39 C247.51,449.92 250.17,451.95 250.17,455.54 C250.17,457.47 251.07,458.46 253.34,459.03 C255.09,459.47 261.64,462.17 267.90,465.04 C274.16,467.91 283.01,471.10 287.57,472.13 C299.44,474.81 299.37,474.77 297.54,476.98 C295.79,479.08 286.56,483.96 279.32,486.61 C276.66,487.58 269.15,488.72 262.63,489.15 L250.76,489.93 L250.84,501.79 C250.92,512.66 251.53,515.75 258.14,538.57 C265.67,564.60 279.11,603.82 286.90,622.54 C290.23,630.53 291.16,634.04 290.35,635.56 C289.32,637.48 285.91,637.64 244.75,637.64 C205.22,637.64 200.18,637.43 199.54,635.75 Z M698.51,527.85 C696.72,510.76 713.23,454.81 733.02,410.96 C743.60,387.52 761.53,357.65 769.36,350.47 L772.52,347.56 L771.85,355.86 C770.57,371.64 764.33,388.10 741.92,434.76 C724.50,471.03 715.29,491.51 707.43,511.41 C702.34,524.29 698.82,530.78 698.51,527.85 Z M314.82,459.38 C297.01,409.23 288.44,389.21 259.60,330.35 C239.28,288.89 229.15,265.07 230.74,262.49 C231.67,260.99 242.50,270.68 249.49,279.27 C275.82,311.61 302.53,373.06 313.50,426.51 C317.22,444.68 318.75,460.86 316.74,460.86 C315.97,460.86 315.11,460.19 314.82,459.38 Z M800.94,424.47 C797.44,423.06 795.92,417.12 795.92,404.82 C795.92,387.35 792.27,360.21 788.09,346.67 C786.09,340.17 794.44,350.92 802.15,364.76 C808.41,376.00 816.00,402.10 816.06,412.57 C816.09,417.72 813.52,423.45 810.70,424.53 C808.47,425.38 803.12,425.35 800.94,424.47 Z M429.04,385.27 L428.72,350.03 L424.76,349.22 C417.32,347.69 417.34,348.32 423.89,326.20 C427.91,312.65 437.51,264.60 442.45,233.36 C444.54,220.15 446.71,209.34 447.27,209.34 C447.84,209.34 448.30,209.74 448.31,210.23 C448.32,210.72 449.86,221.00 451.73,233.07 C454.79,252.77 455.14,257.95 455.13,283.58 C455.11,316.18 455.31,317.09 464.90,326.67 C468.36,330.13 471.23,334.47 472.62,338.34 C474.76,344.27 474.76,344.60 472.72,346.86 C471.55,348.15 468.91,349.37 466.86,349.57 L463.13,349.93 L462.82,385.23 L462.50,420.52 L445.93,420.52 L429.35,420.52 L429.04,385.27 Z M217.33,395.31 C213.75,391.34 213.23,388.79 215.08,384.37 C219.49,373.81 234.75,376.55 234.75,387.90 C234.75,393.83 230.46,397.98 224.33,397.98 C221.07,397.98 219.04,397.21 217.33,395.31 Z M853.24,378.98 C851.82,378.41 844.08,371.36 836.04,363.31 C828.00,355.26 818.01,346.29 813.84,343.37 C809.67,340.45 804.86,336.86 803.16,335.38 L800.07,332.68 L803.63,333.40 C830.81,338.89 865.89,360.03 865.91,370.92 C865.92,373.51 861.27,378.63 858.21,379.41 C856.90,379.74 854.67,379.55 853.24,378.98 Z M701.55,374.90 C694.14,367.50 701.69,357.89 724.73,345.41 C735.63,339.51 761.51,330.86 761.51,333.13 C761.51,333.41 756.84,337.01 751.13,341.12 C745.42,345.24 734.65,354.68 727.20,362.09 C719.74,369.51 712.70,376.08 711.55,376.69 C708.05,378.57 704.60,377.95 701.55,374.90 Z M126.30,368.88 C118.98,365.06 117.24,358.06 120.13,344.06 C126.30,314.24 146.17,286.00 173.65,268.04 C183.40,261.66 194.62,255.61 196.68,255.61 C197.32,255.61 192.86,260.64 186.77,266.78 C162.84,290.90 147.06,322.88 143.98,353.49 C143.00,363.23 141.13,366.71 135.63,369.01 C130.66,371.09 130.53,371.09 126.30,368.88 Z M197.14,346.37 C186.39,338.84 191.63,298.27 206.58,273.31 C211.23,265.54 214.27,262.62 212.95,267.18 C209.07,280.57 208.30,314.32 211.51,329.41 C213.68,339.56 213.16,343.79 209.43,346.40 C206.21,348.66 200.38,348.64 197.14,346.37 Z M883.71,322.57 C867.42,320.02 845.75,318.49 826.04,318.49 C815.92,318.49 807.93,318.03 808.27,317.48 C809.60,315.32 834.38,307.55 848.48,304.86 C862.12,302.26 885.98,300.44 894.82,301.33 C901.35,301.99 903.68,302.80 906.62,305.42 C911.84,310.08 911.78,316.27 906.47,321.01 C902.12,324.91 899.70,325.07 883.71,322.57 Z M677.70,322.10 C671.95,319.69 669.62,311.99 673.13,306.98 C676.11,302.72 682.32,301.47 696.37,302.27 C711.89,303.16 723.88,305.52 739.89,310.84 C761.91,318.15 761.79,318.38 736.01,318.47 C716.72,318.53 702.27,319.66 684.19,322.54 C682.02,322.88 679.10,322.68 677.70,322.10 Z M336.78,321.24 C326.27,317.25 327.71,303.40 338.86,301.17 C342.00,300.54 343.21,301.01 346.22,304.02 C350.63,308.44 350.98,313.51 347.16,317.79 C344.38,320.89 339.84,322.40 336.78,321.24 Z M758.36,299.19 C747.58,289.10 731.06,275.73 720.68,268.71 C709.79,261.34 707.65,258.86 707.65,253.62 C707.65,246.13 715.58,242.59 723.37,246.62 C728.95,249.51 743.49,265.88 752.22,279.12 C760.92,292.31 768.01,305.27 767.04,306.24 C766.74,306.55 762.83,303.38 758.36,299.19 Z M795.92,305.94 C795.92,304.31 805.95,288.31 812.69,279.19 C821.02,267.92 834.82,253.61 841.00,249.85 C851.08,243.70 860.86,250.52 856.87,260.90 C856.47,261.97 848.32,268.10 838.78,274.53 C829.24,280.97 815.94,290.82 809.24,296.43 C797.41,306.32 795.92,307.39 795.92,305.94 Z M68.56,299.60 C62.27,293.31 64.45,284.75 75.21,273.46 C91.17,256.74 117.59,244.23 145.67,240.13 C155.52,238.69 187.69,239.01 189.25,240.56 C190.60,241.91 189.44,242.34 177.30,244.97 C141.93,252.64 120.07,264.37 96.33,288.43 C82.46,302.49 81.69,303.07 76.96,303.07 C73.09,303.07 71.28,302.32 68.56,299.60 Z M780.49,298.62 C780.49,298.13 779.68,292.92 778.70,287.05 C775.92,270.37 772.19,232.49 772.19,220.88 C772.19,209.14 773.08,206.61 778.10,204.01 C783.27,201.34 787.14,201.83 791.45,205.69 C795.21,209.06 795.32,209.43 795.12,217.85 C794.87,228.01 790.13,261.50 785.86,283.31 C784.21,291.69 782.87,298.76 782.87,299.03 C782.87,299.29 782.33,299.51 781.68,299.51 C781.03,299.51 780.49,299.11 780.49,298.62 Z M295.37,285.64 C294.45,285.26 289.11,280.30 283.50,274.62 C272.85,263.83 258.99,253.97 248.20,249.50 C239.08,245.72 240.15,244.45 251.65,245.40 C271.95,247.09 288.73,253.86 300.18,264.99 C306.10,270.75 307.12,272.37 307.12,276.00 C307.12,282.71 300.82,287.88 295.37,285.64 Z M476.15,261.07 C473.88,259.41 473.89,259.22 477.05,249.49 C484.60,226.20 496.18,171.10 506.38,109.96 L512.37,74.05 L512.37,39.75 C512.37,10.15 512.62,5.19 514.23,3.58 C517.81,0.00 523.72,2.21 524.44,7.41 C524.84,10.24 526.24,10.93 556.34,23.13 C562.59,25.66 572.42,28.56 578.20,29.56 C583.98,30.57 588.95,31.64 589.24,31.93 C590.87,33.56 587.35,36.47 578.58,40.76 C565.17,47.33 557.08,49.29 539.65,50.19 L524.82,50.95 L524.97,65.78 C525.13,81.73 528.35,102.82 539.64,161.88 C547.56,203.30 553.04,227.53 558.26,244.13 C561.60,254.77 562.36,258.64 561.41,260.15 C560.29,261.93 556.04,262.17 519.31,262.45 C485.51,262.71 478.06,262.47 476.15,261.07 Z M339.34,233.00 C322.67,226.01 312.29,224.16 289.91,224.21 C274.50,224.25 268.63,224.77 258.69,227.00 C251.96,228.51 246.17,229.47 245.83,229.12 C244.88,228.17 254.21,222.59 266.19,216.93 C295.80,202.93 332.72,201.37 356.10,213.11 C368.59,219.38 367.94,236.03 355.16,237.21 C351.63,237.54 347.59,236.46 339.34,233.00 Z M183.40,221.57 C167.71,215.11 152.27,211.10 136.31,209.34 C123.58,207.94 118.46,208.23 98.63,211.42 C83.99,213.77 80.87,213.05 77.71,206.59 C75.73,202.54 75.67,201.63 77.16,197.72 C80.58,188.73 92.12,184.84 111.95,185.99 C131.53,187.13 151.58,193.49 169.81,204.33 C184.64,213.16 202.37,227.89 197.08,226.98 C196.59,226.90 190.43,224.46 183.40,221.57 Z M232.88,215.57 C246.60,177.16 281.37,144.14 310.34,141.99 C317.30,141.47 317.91,141.64 321.31,145.05 C324.16,147.90 324.91,149.68 324.91,153.54 C324.91,160.44 321.56,163.37 310.62,166.04 C292.90,170.35 276.15,178.68 261.50,190.46 C252.69,197.55 233.56,217.09 233.56,219.01 C233.56,219.56 233.05,220.02 232.43,220.02 C231.79,220.02 231.98,218.08 232.88,215.57 Z M202.16,205.74 C188.86,187.36 171.53,168.91 159.53,160.36 C146.62,151.17 145.23,149.60 145.23,144.28 C145.23,137.23 149.18,133.41 156.47,133.41 C163.14,133.41 168.69,137.00 176.84,146.60 C187.76,159.48 196.46,175.55 203.25,195.44 C208.76,211.57 208.45,214.44 202.16,205.74 Z M220.51,201.76 C220.51,201.50 219.46,196.20 218.18,189.97 C213.39,166.69 213.86,142.53 219.45,125.45 C223.26,113.79 231.26,108.29 238.68,112.25 C245.26,115.75 245.99,122.88 240.81,133.15 C233.14,148.35 226.70,170.62 223.99,191.25 C223.19,197.28 222.09,202.22 221.53,202.22 C220.97,202.22 220.51,202.01 220.51,201.76 Z "/></svg>