<svg xmlns="http://www.w3.org/2000/svg" viewBox="0 0 1000 1000" width="1000" height="1000"><path fill-rule="evenodd" fill="black" d=" M546.38,825.55 C479.95,821.05 417.22,803.56 339.18,767.75 C280.17,740.69 252.57,730.94 224.51,727.24 C211.71,725.56 186.77,725.54 173.56,727.21 C163.16,728.52 142.30,732.59 121.52,737.36 C104.01,741.38 81.87,745.25 69.44,746.45 C54.95,747.85 31.67,747.03 20.92,744.75 C10.90,742.62 0.00,739.32 0.00,738.42 C0.00,738.04 3.91,737.45 8.68,737.11 C27.00,735.78 49.34,730.61 67.21,723.56 C71.62,721.82 86.04,714.88 99.26,708.14 C141.21,686.73 157.08,680.94 188.60,675.52 C205.01,672.70 231.16,671.73 248.03,673.33 C289.94,677.29 330.88,689.28 383.98,713.16 C398.32,719.61 412.61,726.72 479.83,760.81 C529.30,785.90 557.73,797.56 595.56,808.27 C609.07,812.10 626.98,816.04 636.29,817.24 C638.86,817.57 640.96,818.10 640.96,818.42 C640.96,819.13 623.39,822.70 614.26,823.84 C595.32,826.22 566.87,826.94 546.38,825.55 Z M708.62,814.88 C673.00,811.92 627.71,799.84 586.21,782.23 C555.73,769.29 538.46,760.60 474.49,725.98 C423.53,698.40 398.66,686.31 367.18,673.81 C341.97,663.80 319.39,656.89 296.44,652.14 C270.71,646.82 264.67,646.26 233.68,646.27 C207.91,646.28 204.10,646.47 193.62,648.33 C167.20,653.02 146.73,659.37 128.34,668.59 C123.15,671.19 118.79,673.19 118.63,673.04 C117.91,672.31 126.90,661.53 133.37,655.38 C156.93,632.97 192.09,614.67 227.01,606.63 C247.44,601.93 261.95,600.26 283.08,600.18 C293.61,600.14 306.84,600.60 312.47,601.19 C345.67,604.70 382.19,614.18 418.41,628.69 C456.32,643.87 484.99,658.68 548.38,695.78 C597.32,724.43 618.11,734.62 654.60,747.80 L658.00,749.03 L655.37,745.71 C650.49,739.55 628.11,717.72 620.93,712.12 C612.36,705.43 601.90,698.62 589.42,691.61 C574.93,683.47 566.18,674.13 566.18,666.80 C566.18,662.68 568.67,658.69 572.61,656.48 C579.87,652.40 593.96,654.26 607.52,661.08 C625.63,670.20 636.93,681.26 657.30,709.83 C675.32,735.09 686.40,745.80 702.44,753.47 C716.52,760.20 730.44,762.62 754.91,762.59 C784.66,762.55 808.10,757.38 847.49,742.16 C875.70,731.26 889.65,727.78 905.41,727.73 C916.48,727.69 922.40,729.06 941.66,736.07 C948.87,738.69 957.77,741.52 961.44,742.36 C968.73,744.02 989.20,744.60 996.14,743.33 C999.69,742.69 1000.00,742.76 998.98,743.99 C996.68,746.76 983.07,752.62 973.46,754.97 C959.60,758.36 944.21,758.33 924.94,754.86 C895.34,749.53 874.89,752.46 841.11,766.85 C837.52,768.38 833.88,769.91 833.01,770.25 C832.14,770.60 842.35,770.74 855.71,770.58 C874.18,770.35 882.53,770.61 890.59,771.68 C900.46,772.99 912.06,775.60 911.31,776.34 C911.14,776.52 908.62,777.08 905.73,777.58 C899.89,778.59 892.01,780.28 880.08,783.08 C875.72,784.10 865.51,787.32 857.38,790.24 C807.42,808.17 791.79,812.20 761.59,814.94 C750.41,815.96 721.17,815.92 708.62,814.88 Z M705.02,739.54 C701.49,735.51 696.68,725.53 694.85,718.39 C693.08,711.50 693.11,698.15 694.91,690.04 C695.69,686.52 698.05,679.98 700.14,675.51 C705.38,664.33 709.76,658.13 723.53,642.34 C727.89,637.34 729.09,635.34 729.09,633.09 C729.09,626.07 714.28,601.61 698.72,582.92 C667.97,546.02 627.70,520.61 579.74,507.84 C558.03,502.06 547.45,500.19 511.88,495.83 C471.84,490.92 448.67,486.19 448.67,482.93 C448.67,481.71 449.25,481.73 472.71,483.77 C483.73,484.72 501.58,486.20 512.39,487.04 C535.49,488.85 537.91,488.54 548.82,482.40 C560.97,475.56 571.74,470.52 577.31,469.07 C598.66,463.49 626.10,469.85 652.05,486.38 C659.73,491.28 662.61,491.92 664.13,489.07 C665.43,486.65 662.92,481.45 656.32,472.84 C634.18,444.01 607.15,425.50 575.98,417.85 C564.56,415.04 539.01,414.75 529.24,417.31 C518.94,420.01 506.16,426.76 494.49,435.67 C479.06,447.46 470.08,453.24 461.31,457.04 C454.02,460.20 442.95,463.30 438.97,463.30 C437.79,463.30 435.38,460.96 431.88,456.40 C418.45,438.92 398.85,424.15 390.08,424.92 C389.35,424.98 389.02,425.92 389.19,427.42 C389.40,429.19 391.11,431.07 395.70,434.58 C405.86,442.34 416.73,453.44 422.09,461.52 C424.85,465.68 431.51,478.10 436.90,489.12 C443.87,503.37 448.87,512.23 454.22,519.85 C463.74,533.39 464.09,534.06 463.42,537.64 C460.94,550.88 420.58,544.93 390.06,526.82 C358.59,508.14 332.60,479.24 311.63,439.61 C298.76,415.28 294.22,410.14 279.02,402.68 C255.18,390.97 222.68,388.13 189.37,394.83 C177.95,397.13 169.09,399.95 151.78,406.83 C143.95,409.94 133.13,413.54 127.75,414.83 C115.28,417.80 113.75,418.42 114.12,420.36 C115.03,425.15 147.94,436.82 181.34,444.19 C198.84,448.05 227.29,453.08 266.81,459.29 C305.50,465.37 312.40,466.66 314.84,468.23 C315.91,468.92 319.66,472.80 323.20,476.85 C326.73,480.91 334.21,488.95 339.81,494.72 L349.99,505.22 L350.36,517.12 C350.67,526.79 351.26,530.99 353.52,539.56 C357.96,556.35 358.15,557.32 357.54,559.76 C356.87,562.42 352.94,564.79 349.20,564.79 C338.02,564.79 316.21,553.47 301.97,540.29 C285.86,525.38 273.67,502.13 270.68,480.63 C270.14,476.76 269.41,473.32 269.05,472.99 C268.69,472.65 261.39,471.31 252.82,469.99 C189.72,460.32 150.84,451.32 121.78,439.64 C109.59,434.74 102.86,430.72 97.98,425.42 C93.23,420.28 91.69,416.58 91.69,410.33 C91.69,404.08 93.69,400.05 99.66,394.27 C103.11,390.93 104.56,388.70 105.61,385.11 C113.42,358.35 139.15,329.45 170.83,311.83 C190.27,301.02 225.74,288.08 255.94,280.78 C307.69,268.27 357.39,263.56 405.05,266.66 C428.58,268.18 433.27,268.05 438.61,265.69 C445.23,262.76 448.07,260.12 459.57,246.23 C473.11,229.88 491.31,211.21 501.20,203.53 C527.94,182.75 552.25,173.06 574.64,174.25 C584.74,174.78 589.53,175.96 592.13,178.57 C595.05,181.48 593.52,184.28 583.70,193.97 C569.27,208.22 561.80,219.26 554.76,236.74 C546.06,258.36 545.04,280.43 552.17,292.51 C555.80,298.66 559.44,301.79 575.09,312.23 C605.42,332.48 623.30,346.97 644.13,368.19 C675.60,400.25 702.82,439.72 725.98,486.89 C744.61,524.82 756.48,558.39 766.90,602.62 C769.20,612.42 771.69,622.14 772.43,624.23 C774.44,629.95 778.72,632.91 791.88,637.71 C798.26,640.03 806.26,643.48 809.65,645.38 C833.36,658.64 852.29,681.96 858.25,705.28 C859.98,712.06 860.56,722.77 859.23,723.59 C858.83,723.84 855.33,721.64 851.44,718.71 C837.39,708.10 825.70,704.11 804.76,702.77 C797.66,702.32 790.25,701.49 788.29,700.92 C783.15,699.45 776.39,695.90 772.12,692.43 C770.08,690.77 768.12,689.42 767.76,689.42 C767.41,689.42 764.47,692.17 761.24,695.54 C755.10,701.91 750.81,704.49 737.55,709.76 C725.60,714.51 717.21,722.56 713.41,732.92 C710.42,741.06 709.59,742.83 708.76,742.83 C708.29,742.83 706.61,741.35 705.02,739.54 Z M874.71,708.33 C875.78,700.96 879.52,689.28 883.29,681.57 C891.29,665.19 903.70,651.98 916.65,646.05 C923.86,642.76 932.58,642.70 938.76,645.92 C943.87,648.58 947.97,654.29 948.70,659.79 C949.24,663.81 946.48,671.21 943.34,674.13 C939.84,677.40 932.31,680.53 923.47,682.37 C904.15,686.41 895.72,690.85 882.83,703.79 L874.09,712.55 L874.71,708.33 Z M665.45,683.20 C664.40,679.91 654.64,665.81 648.65,658.94 C636.28,644.76 622.18,635.54 602.43,628.71 C588.31,623.82 585.52,622.34 580.98,617.31 C572.54,607.97 573.40,596.43 582.96,590.81 C586.61,588.67 587.95,588.39 594.22,588.50 C606.86,588.71 619.32,594.98 632.80,607.91 C648.87,623.33 660.03,645.26 665.47,672.12 C666.68,678.09 667.67,683.42 667.67,683.97 C667.67,685.64 666.04,685.08 665.45,683.20 Z M825.24,618.14 C825.24,613.42 832.41,597.49 839.24,587.04 C853.85,564.72 872.68,548.92 892.45,542.40 C901.82,539.31 912.77,539.53 920.33,542.95 C929.57,547.14 934.84,555.18 933.40,562.89 C931.01,575.60 920.42,581.87 897.10,584.38 C868.71,587.43 849.92,595.62 832.79,612.41 C827.47,617.62 825.24,619.31 825.24,618.14 Z M799.99,584.69 C798.69,575.24 799.85,557.36 802.66,543.42 C805.72,528.28 812.31,513.08 820.79,501.66 C827.15,493.07 833.10,487.79 840.18,484.45 C845.06,482.14 846.55,481.84 851.85,482.14 C862.31,482.73 868.79,489.06 868.84,498.72 C868.88,506.94 864.97,511.91 850.28,522.32 C826.81,538.94 811.11,559.20 803.66,582.50 C802.55,585.95 801.40,588.79 801.10,588.80 C800.80,588.82 800.30,586.97 799.99,584.69 Z M254.16,368.52 C270.02,364.34 286.01,357.27 298.92,348.74 C307.60,343.00 309.62,340.50 308.17,337.32 C306.13,332.83 288.63,328.20 270.59,327.39 C246.71,326.31 225.30,332.41 208.55,345.07 C201.70,350.25 198.17,354.05 196.76,357.75 C195.50,361.07 195.55,361.33 198.10,364.36 C202.49,369.58 212.52,371.63 231.46,371.19 C242.81,370.92 246.83,370.45 254.16,368.52 Z "/></svg>