<svg xmlns="http://www.w3.org/2000/svg" viewBox="0 0 1000 1000" width="1000" height="1000"><path fill-rule="evenodd" fill="black" d=" M479.67,869.47 C477.81,869.26 471.54,868.63 465.74,868.07  C397.67,861.49 329.17,832.53 269.50,785.10  C255.75,774.17 226.77,745.97 216.76,733.76  C208.83,724.10 209.90,724.57 194.13,723.66  C155.89,721.46 114.33,714.62 88.32,706.25  C73.04,701.33 55.61,692.80 46.03,685.56  C0.00,650.73 18.98,597.34 95.93,545.19  C108.09,536.94 112.48,534.55 112.48,536.17  C112.48,536.56 108.53,541.05 103.70,546.15  C55.23,597.36 60.84,635.29 119.92,655.86  C172.49,674.16 270.26,674.93 372.89,657.85  C527.07,632.21 687.47,574.96 800.68,505.19  C837.98,482.20 865.27,461.46 886.96,439.64  C902.47,424.03 910.19,414.09 916.35,401.77  C928.02,378.46 924.88,358.58 907.26,344.18  C896.38,335.29 877.31,327.65 854.65,323.10  C843.39,320.84 841.79,320.22 844.50,319.16  C847.30,318.06 881.42,318.17 894.69,319.31  C918.84,321.39 943.89,328.08 958.77,336.43  C995.21,356.87 1000.00,392.03 972.13,434.60  C955.31,460.31 921.04,492.54 880.68,520.63  C874.03,525.25 867.90,529.61 867.05,530.30  C866.02,531.15 865.29,533.99 864.84,538.89  C860.97,581.63 843.84,636.54 821.67,677.27  C791.82,732.10 746.21,780.81 693.61,814.01  C648.13,842.73 598.47,860.58 544.41,867.64  C533.02,869.13 487.86,870.41 479.67,869.47  Z M520.25,836.21 C567.58,833.38 608.43,822.45 648.77,801.83  C677.54,787.12 704.11,768.44 726.68,747.06  C734.47,739.68 736.52,735.78 740.24,721.31  C741.86,715.00 742.89,707.42 743.47,697.51  C744.46,680.54 745.95,675.51 754.34,660.68  C762.66,645.99 762.99,644.58 763.28,621.70  C763.54,601.28 762.99,597.61 759.49,596.26  C758.70,595.96 753.35,598.01 747.61,600.83  C706.73,620.90 644.99,646.14 602.09,660.32  C593.43,663.19 589.00,665.18 587.31,666.97  C583.33,671.21 579.50,680.54 577.34,691.28  C573.77,709.04 566.87,720.07 555.83,725.67  C553.30,726.95 550.68,728.00 550.00,728.00  C547.32,728.00 537.00,733.73 534.13,736.82  C532.46,738.61 528.57,744.20 525.47,749.25  C518.32,760.92 508.31,771.12 500.43,774.74  C489.21,779.91 489.84,779.37 489.51,784.07  C489.12,789.50 486.90,791.95 479.81,794.75  C473.32,797.31 470.23,799.85 468.43,804.06  C466.13,809.47 466.76,814.64 470.56,821.44  C474.99,829.35 474.21,830.90 466.15,830.17  C456.03,829.25 442.45,821.32 434.30,811.58  C425.45,801.00 423.22,793.40 421.71,768.58  C419.97,739.97 416.74,720.90 412.80,715.88  C409.64,711.87 407.63,711.62 394.59,713.57  C354.30,719.61 316.71,723.40 280.18,725.09  C267.99,725.66 257.77,726.36 257.47,726.66  C256.58,727.54 282.31,752.10 293.45,761.00  C315.66,778.73 334.62,790.78 359.37,802.91  C387.48,816.69 410.26,824.54 438.93,830.36  C456.67,833.96 466.75,835.28 483.43,836.18  C503.07,837.24 503.08,837.24 520.25,836.21  Z M176.31,644.27 C168.64,643.51 161.80,642.43 161.13,641.88  C158.38,639.59 148.05,610.40 142.99,590.61  C135.28,560.48 132.56,537.66 132.47,502.37  C132.39,474.88 133.11,465.73 137.27,441.49  C143.68,404.13 154.63,371.08 171.86,337.13  C217.26,247.69 294.64,180.23 388.14,148.60  C426.20,135.72 463.52,129.68 505.27,129.65  C564.34,129.59 613.36,141.07 665.19,167.09  C700.26,184.70 726.97,204.13 756.07,233.22  C792.67,269.81 818.26,308.64 837.94,357.42  C846.77,379.31 857.08,414.74 858.94,429.57  L859.61,434.92 L847.71,444.36  C807.76,476.05 750.81,510.16 696.75,534.76  C679.40,542.66 679.05,542.67 673.92,535.59  C669.62,529.66 668.88,525.69 669.58,512.24  C670.12,501.72 669.97,499.80 668.14,494.64  C662.50,478.70 664.65,470.86 680.65,448.92  C681.69,447.49 683.25,443.50 684.13,440.04  C688.10,424.29 692.45,420.44 720.27,408.04  C741.07,398.78 749.42,398.41 755.03,406.51  C756.58,408.74 758.77,411.76 759.89,413.20  C762.67,416.79 773.34,421.71 779.75,422.38  L785.00,422.92 L786.56,419.16  C789.15,412.92 793.02,411.55 801.96,413.73  C810.10,415.70 813.39,414.77 813.82,410.38  C814.59,402.45 797.76,380.13 791.00,380.13  C787.35,380.13 785.98,381.75 785.98,386.08  C785.98,391.62 784.24,394.63 781.04,394.63  C777.88,394.63 775.47,391.79 768.02,379.26  C761.47,368.25 757.25,365.14 748.93,365.19  C736.53,365.26 725.30,373.77 718.34,388.34  C716.20,392.82 712.88,398.01 710.96,399.88  C706.07,404.63 698.02,407.52 691.51,406.87  C682.54,405.97 677.96,401.62 675.24,391.39  C671.81,378.49 675.43,371.44 685.49,371.44  C689.69,371.44 694.28,369.42 695.09,367.21  C696.93,362.24 691.33,355.64 682.61,352.51  C670.32,348.09 669.67,340.11 681.34,336.79  C687.93,334.91 691.12,331.41 696.25,320.41  C698.83,314.90 702.72,308.36 704.90,305.88  C712.31,297.48 713.74,292.39 710.55,285.80  C708.12,280.78 701.33,275.77 696.97,275.77  C694.86,275.77 693.87,276.60 692.07,279.86  C687.94,287.35 682.51,286.96 673.32,278.49  C667.12,272.77 665.20,268.57 665.16,260.59  C665.13,255.21 664.61,253.08 662.26,248.72  C656.69,238.38 659.65,230.36 669.03,230.36  C673.29,230.36 681.79,233.40 697.91,240.71  C711.05,246.66 720.27,249.27 720.27,247.04  C720.27,244.59 701.48,229.38 683.72,217.46  C649.05,194.17 607.34,177.17 566.15,169.55  C545.69,165.76 530.29,164.41 506.72,164.36  C481.43,164.30 463.01,166.20 437.32,171.52  C402.78,178.68 358.68,195.63 351.82,204.39  C348.09,209.16 346.26,214.67 347.50,217.40  C349.62,222.05 355.45,222.73 366.54,219.62  C371.76,218.15 375.48,217.70 379.67,218.04  C385.97,218.54 393.05,221.56 394.05,224.15  C394.94,226.48 393.62,238.13 392.14,241.09  C391.44,242.47 389.76,244.33 388.40,245.21  C385.31,247.24 385.16,250.96 388.09,253.01  C390.76,254.88 398.44,254.97 402.72,253.18  C408.22,250.89 410.11,247.47 409.92,240.24  C409.75,234.29 409.91,233.80 412.83,231.19  C416.57,227.85 420.88,227.59 428.55,230.22  C431.42,231.21 437.25,232.34 441.50,232.74  C455.02,233.99 460.20,237.53 463.19,247.58  C464.79,252.95 466.02,254.93 470.46,259.32  C474.97,263.77 475.80,265.14 475.80,268.07  C475.80,273.92 468.54,278.69 457.29,280.23  C452.75,280.85 443.52,279.26 441.26,277.46  C439.58,276.13 439.75,272.40 441.56,270.89  C443.56,269.23 445.85,264.73 445.85,262.46  C445.85,257.58 438.11,254.88 432.51,257.82  C427.46,260.46 420.72,269.28 420.72,273.26  C420.72,274.05 419.68,275.92 418.40,277.41  C416.22,279.94 415.46,280.15 406.43,280.68  C398.03,281.18 395.84,281.70 389.52,284.70  C377.18,290.56 371.34,298.38 373.49,306.17  C374.60,310.19 377.85,312.91 384.23,315.16  C386.84,316.09 390.30,317.94 391.91,319.28  C394.46,321.40 394.93,322.56 395.52,328.28  C396.23,335.12 397.23,336.61 401.12,336.63  C406.71,336.67 415.01,324.05 417.00,312.49  C419.06,300.56 424.56,292.84 431.84,291.68  C435.11,291.16 436.67,291.60 441.98,294.51  C445.44,296.41 451.09,299.29 454.54,300.92  C458.00,302.55 462.33,304.63 464.17,305.53  C466.57,306.71 468.86,309.38 472.22,314.91  C474.80,319.16 479.01,324.81 481.57,327.47  C487.12,333.23 488.58,335.97 492.85,348.65  C496.45,359.33 496.77,361.95 494.69,363.67  C492.37,365.60 487.82,363.89 482.50,359.11  C478.34,355.38 476.69,354.54 472.22,353.94  C466.01,353.09 457.22,354.30 453.95,356.44  C451.15,358.28 450.14,361.86 451.65,364.67  C452.27,365.83 455.09,367.81 457.93,369.06  C469.16,374.03 462.84,382.44 446.64,384.07  C431.62,385.59 414.14,397.17 398.27,416.12  C393.09,422.30 386.38,429.45 383.35,432.01  C371.79,441.79 369.15,444.52 367.31,448.66  C365.60,452.51 365.48,454.20 366.10,466.13  C366.65,476.94 366.51,479.97 365.29,482.88  C364.07,485.80 363.32,486.42 361.03,486.42  C356.20,486.42 352.06,480.16 350.65,470.70  C349.76,464.72 346.77,460.33 341.96,457.92  C338.64,456.25 336.30,456.00 325.06,456.08  C314.28,456.17 310.94,456.55 305.82,458.32  C290.44,463.63 282.06,474.91 282.06,490.29  C282.06,502.18 287.53,509.61 296.26,509.61  C301.42,509.61 305.03,507.53 308.68,502.45  C314.85,493.86 326.54,493.29 326.22,501.58  C326.16,503.08 324.58,507.92 322.69,512.35  C320.81,516.78 319.26,521.16 319.26,522.10  C319.26,525.06 322.42,526.76 329.21,527.46  C334.01,527.95 336.47,528.74 338.38,530.38  C341.25,532.85 341.56,536.04 340.05,547.95  C339.40,553.13 339.57,554.34 341.34,557.20  C343.96,561.44 346.98,562.76 354.06,562.76  C357.53,562.76 361.74,563.53 364.76,564.72  C370.87,567.13 372.36,566.71 379.13,560.68  C389.65,551.31 401.85,549.68 415.57,555.80  C421.99,558.67 423.27,558.90 433.00,558.90  C445.43,558.90 447.66,559.81 458.37,569.27  C466.83,576.74 471.06,578.93 480.48,580.72  C493.56,583.20 502.51,589.33 507.58,599.27  L509.54,603.11 L500.16,605.73  C465.10,615.49 424.15,624.82 390.29,630.74  C361.95,635.70 357.12,636.42 356.13,635.81  C355.64,635.50 354.71,632.42 354.05,628.95  C352.50,620.72 353.64,616.07 359.88,605.18  C367.69,591.57 368.32,583.67 362.21,576.40  C359.88,573.63 359.50,573.52 352.33,573.67  C345.84,573.81 344.18,573.47 339.56,571.07  C331.45,566.86 327.10,562.99 322.52,555.90  C317.45,548.07 314.13,545.16 306.07,541.50  C302.37,539.83 297.61,536.51 294.15,533.22  C288.83,528.14 287.73,527.56 279.55,525.43  C269.34,522.78 261.41,518.34 254.45,511.38  C246.85,503.78 244.69,498.57 243.72,485.53  C242.78,472.73 238.82,452.11 236.16,446.10  C234.25,441.78 231.90,440.05 230.22,441.73  C229.44,442.52 227.67,456.49 227.50,463.18  C227.42,466.39 225.55,462.20 222.77,452.60  C218.60,438.17 216.64,424.29 216.65,409.12  C216.66,385.87 220.97,371.10 235.26,345.35  C245.39,327.09 250.24,316.20 253.07,305.36  C257.34,289.02 257.24,282.50 252.71,282.56  C249.50,282.60 227.47,311.30 215.87,330.56  C201.84,353.87 188.17,384.63 180.74,409.60  C176.14,425.06 170.95,451.60 168.95,469.89  C166.99,487.79 167.48,527.91 169.87,544.54  C174.28,575.27 183.43,606.96 195.53,633.43  L201.21,645.86 L195.74,645.75  C192.73,645.69 183.99,645.02 176.31,644.27  Z M520.99,290.27 C513.38,287.98 504.33,278.99 498.54,267.98  C494.55,260.38 494.16,257.48 495.59,246.18  C496.30,240.62 496.13,239.82 492.91,233.13  C488.62,224.25 483.73,218.47 478.83,216.51  C476.76,215.68 471.42,214.27 466.97,213.38  C456.99,211.38 453.79,209.80 452.96,206.49  C451.54,200.84 457.74,195.75 469.04,193.30  C478.78,191.20 525.91,191.67 531.85,193.93  C539.29,196.77 545.36,202.15 549.24,209.31  C551.17,212.88 555.35,218.54 558.53,221.87  C569.85,233.74 569.19,240.04 555.69,248.96  C553.66,250.31 548.64,254.65 544.53,258.63  C536.64,266.26 536.00,267.49 533.67,279.64  C532.81,284.17 531.73,286.66 529.82,288.58  C527.07,291.33 525.50,291.63 520.99,290.27  Z "/></svg>